<svg width="40" height="40" viewBox="0 0 40 40" fill="none" xmlns="http://www.w3.org/2000/svg">
<rect x="1.5" y="1.5" width="37" height="37" rx="18.5" fill="#01A3F7" stroke="#F4F4EF" stroke-width="3" stroke-linejoin="round"/>
<circle cx="20" cy="20.0005" r="12" fill="#F4F4EF"/>
<path d="M13.1426 25.1429H15.4283V18.2858H13.1426V25.1429ZM25.714 18.8572C25.714 18.2286 25.1997 17.7144 24.5711 17.7144H20.9654L21.5083 15.1029L21.5254 14.9201C21.5254 14.6858 21.4283 14.4686 21.274 14.3144L20.6683 13.7144L16.9083 17.4801C16.6969 17.6858 16.5711 17.9715 16.5711 18.2858V24.0001C16.5711 24.6286 17.0854 25.1429 17.714 25.1429H22.8569C23.3311 25.1429 23.7369 24.8572 23.9083 24.4458L25.634 20.4172C25.6854 20.2858 25.714 20.1486 25.714 20.0001V18.8572Z" fill="#01A3F7"/>
</svg>
