<svg width="41" height="41" viewBox="0 0 41 41" fill="none" xmlns="http://www.w3.org/2000/svg">
<rect x="1.5" y="1.5" width="38" height="38" rx="19" fill="#FC0228" stroke="#F4F4EF" stroke-width="3" stroke-linejoin="round"/>
<circle cx="20.5002" cy="20.5002" r="12.3" fill="#F4F4EF"/>
<mask id="path-3-inside-1_170_630" fill="white">
<path d="M13.4595 27.4816C14.3841 26.557 15.4818 25.8236 16.6898 25.3232C17.8979 24.8228 19.1927 24.5653 20.5003 24.5653C21.8078 24.5653 23.1026 24.8228 24.3107 25.3232C25.5187 25.8236 26.6164 26.557 27.541 27.4816L26.323 28.6997C25.5583 27.9351 24.6505 27.3285 23.6515 26.9147C22.6524 26.5009 21.5816 26.2879 20.5003 26.2879C19.4189 26.2879 18.3481 26.5009 17.349 26.9147C16.35 27.3285 15.4422 27.9351 14.6775 28.6997L13.4595 27.4816Z"/>
</mask>
<path d="M13.4595 27.4816L-14.8248 -0.802627L-43.1091 27.4816L-14.8248 55.7659L13.4595 27.4816ZM27.541 27.4816L55.8253 55.7659L84.1096 27.4817L55.8253 -0.80261L27.541 27.4816ZM26.323 28.6997L-1.96132 56.984L26.3229 85.2682L54.6072 56.984L26.323 28.6997ZM14.6775 28.6997L-13.6067 56.984L14.6775 85.2682L42.9618 56.984L14.6775 28.6997ZM41.7438 55.7659C38.954 58.5557 35.6421 60.7686 31.9972 62.2784L1.38248 -11.632C-4.67859 -9.12139 -10.1858 -5.44158 -14.8248 -0.802627L41.7438 55.7659ZM31.9972 62.2784C28.3522 63.7882 24.4455 64.5653 20.5002 64.5653L20.5003 -15.4347C13.9398 -15.4347 7.44356 -14.1426 1.38248 -11.632L31.9972 62.2784ZM20.5002 64.5653C16.555 64.5653 12.6483 63.7882 9.00334 62.2784L39.618 -11.632C33.557 -14.1426 27.0607 -15.4347 20.5003 -15.4347L20.5002 64.5653ZM9.00334 62.2784C5.35837 60.7686 2.04647 58.5556 -0.743268 55.7659L55.8253 -0.80261C51.1864 -5.44156 45.6791 -9.12138 39.618 -11.632L9.00334 62.2784ZM-0.743247 -0.80263L-1.96131 0.415427L54.6072 56.984L55.8253 55.7659L-0.743247 -0.80263ZM54.6072 0.415446C50.1282 -4.06355 44.8109 -7.61648 38.9588 -10.0405L8.34413 63.8699C4.49016 62.2735 0.988368 59.9337 -1.96132 56.984L54.6072 0.415446ZM38.9588 -10.0405C33.1067 -12.4645 26.8345 -13.7121 20.5003 -13.7121L20.5002 66.2879C16.3287 66.2879 12.1981 65.4662 8.34413 63.8699L38.9588 -10.0405ZM20.5003 -13.7121C14.166 -13.7121 7.89378 -12.4645 2.04169 -10.0405L32.6564 63.8699C28.8024 65.4662 24.6717 66.2879 20.5002 66.2879L20.5003 -13.7121ZM2.04169 -10.0405C-3.8104 -7.61649 -9.12774 -4.06356 -13.6067 0.41543L42.9618 56.984C40.0121 59.9337 36.5103 62.2735 32.6564 63.8699L2.04169 -10.0405ZM42.9618 0.415435L41.7438 -0.802623L-14.8248 55.7659L-13.6067 56.984L42.9618 0.415435Z" fill="#FC0228" mask="url(#path-3-inside-1_170_630)"/>
</svg>
