<svg xmlns="http://www.w3.org/2000/svg" viewBox="0 0 221.18 208.26"><defs><style>.cls-1{fill:#30b4a8;}.cls-2{fill:#a8c942;}.cls-3{fill:#0f6b62;}.cls-4{fill:#2bb3a4;}</style></defs><g id="Camada_2" data-name="Camada 2"><g id="Camada_1-2" data-name="Camada 1"><g id="Logo-b_NCPI" data-name="Logo-b NCPI"><path class="cls-1" d="M217.64,174.53c-2.87.29-3.68-1.39-3.64-4,.1-6.49.12-13,0-19.48-.1-5.39-2.21-7.53-7.61-7.74-4.15-.17-8.33-.22-12.48,0-2.94.17-4.29-.88-5.51-3.6-4.56-10.13-12.53-15.07-23.76-14.81-7,.16-12.64,3.17-17.5,8.77-.06-5.75-3.1-7.57-7.78-7.51-1.67,0-3.33,0-5,0-8.56,0-8.5,0-7.7,8.57.17,1.85.64,2.82,2.61,2.64,4.44-.42,4.62,2.36,4.61,5.73q-.12,30.21,0,60.42c0,1.42-.77,3.74.68,4.1a16.76,16.76,0,0,0,9.79-.16c2.56-.92,3.81-3.07,3.8-5.88,0-6.95,0-13.9,0-21.7,14.8,14,37.27,6,42-13.12.6-2.42,1.41-4.89,1.38-7.33,0-3.55,2-3.37,4.43-3.42,2.95-.05,3.76,1.44,3.72,4-.06,3.66,0,7.32,0,11,0,14.7,0,14.77,14.59,14.67,7.53-.05,6.7,1.72,6.9-7.36C221.23,175.65,220.66,174.22,217.64,174.53Zm-40.59-19.36c0,11.75-6,19.38-14.53,19.52s-14.58-7.62-14.6-18.49c0-5.09.86-9.93,4.26-13.95a13.55,13.55,0,0,1,22.71,3.17A21.34,21.34,0,0,1,177.05,155.17Z"/><path class="cls-1" d="M62.12,182.87c0,2.16-.78,2.75-2.9,2.9-9.34.64-11.62-1.36-11.65-10.79,0-8.15.08-16.31,0-24.46-.07-5,.34-10.36-5.78-12.5-5.42-1.89-12.5.84-16.28,6-3.45,4.7-3.86,10.16-3.92,15.68-.1,7.32-.19,14.64,0,22,.11,3.37-1.11,4.15-4.3,4.15-10.16,0-10.16.12-10.16-10.14,0-11.15-.09-22.3.06-33.45,0-3.31-.91-5.15-4.43-4.82-2.27.21-2.88-.84-2.73-2.9A38.69,38.69,0,0,0,0,129c-.15-2.14.63-3,2.83-2.87,2.66.15,5.33,0,8,0,8.44,0,9.65,1.06,10.7,9.75,5.12-7.41,11.83-11.18,20.71-11,11.72.22,19.06,6.36,19.58,18.06C62.42,156.23,62,169.56,62.12,182.87Z"/><path class="cls-1" d="M116.43,182.49c-14.32,8.34-33,5.08-42.29-7.39a32,32,0,0,1,3.51-42.23c6.14-5.78,13.61-8.06,22.55-8a29.64,29.64,0,0,1,12,2.29,15.17,15.17,0,0,1,6.41,4.61c2.6,3.23,2.8,7,2,10.82-.12.61-11.15,1.13-11.67.37-1.44-2.11-2.31-4.43-5.39-5.1A17.17,17.17,0,0,0,86,144.45c-4.79,6.72-4.6,17,.42,23.32,4.72,5.93,14.24,8.16,21.84,4.83a34.56,34.56,0,0,0,7.62-4.65c1.88-1.48,2.53-1,3.71.73C124.81,176.61,124.62,177.72,116.43,182.49Z"/><path class="cls-1" d="M206.92,137.56c-5.43.2-6.23-1.72-6.46-6.64-.28-5.86,2.26-6,6.87-6.2,5.63-.3,6.63,2,5.49,6.68C214.36,136.76,211.67,137.38,206.92,137.56Z"/><path class="cls-2" d="M202.21,82.73s-28.66,28.66-54.17,35c19.28-15.18,39.36-29.3,35.9-58.89s-34.66-30.9-34.66-30.9a4.19,4.19,0,0,0-.69-.12,39.25,39.25,0,0,1,3.85-9.91c5-9.1,12.36-16.38,23-17.61,20.18-2.32,40.23,10.84,42.66,31.6C221.57,61.48,202.21,82.73,202.21,82.73Z"/><path class="cls-3" d="M148,117.69c16.05-13.25,16.84-41.24,9.75-49.77-3.16-3.79-13.69-21.35-9.2-40.14a4.19,4.19,0,0,1,.69.12s31.19,1.29,34.66,30.9S167.32,102.51,148,117.69Z"/><path class="cls-4" d="M148,117.69c2.32-7.59-1.57-19.53-7.26-26.15-3.51-4.08-11.94-10-17.67-20.3-8.43-15.28-2.6-34.86,13.52-41.57a23.24,23.24,0,0,1,12-1.89c-4.49,18.79,6,36.35,9.2,40.14C164.88,76.45,164.09,104.44,148,117.69Z"/></g></g></g></svg>