<svg width="41" height="41" viewBox="0 0 41 41" fill="none" xmlns="http://www.w3.org/2000/svg">
<rect x="1.5" y="1.5" width="38" height="38" rx="19" fill="#03B71A" stroke="#F4F4EF" stroke-width="3" stroke-linejoin="round"/>
<circle cx="20.4992" cy="20.5002" r="12.3" fill="#F4F4EF"/>
<mask id="path-3-inside-1_170_640" fill="white">
<path d="M27.5405 25.7835C26.6159 26.7081 25.5182 27.4415 24.3102 27.9419C23.1021 28.4423 21.8073 28.6999 20.4997 28.6999C19.1922 28.6999 17.8974 28.4423 16.6893 27.9419C15.4813 27.4415 14.3836 26.7081 13.459 25.7835L14.677 24.5654C15.4417 25.3301 16.3495 25.9366 17.3485 26.3505C18.3476 26.7643 19.4184 26.9773 20.4997 26.9773C21.5811 26.9773 22.6519 26.7643 23.651 26.3505C24.65 25.9366 25.5578 25.3301 26.3225 24.5654L27.5405 25.7835Z"/>
</mask>
<path d="M27.5405 25.7835L55.8248 54.0678L84.1091 25.7835L55.8248 -2.50078L27.5405 25.7835ZM13.459 25.7835L-14.8253 -2.50079L-43.1096 25.7835L-14.8253 54.0677L13.459 25.7835ZM14.677 24.5654L42.9613 -3.71883L14.6771 -32.0031L-13.6072 -3.71885L14.677 24.5654ZM26.3225 24.5654L54.6067 -3.71884L26.3225 -32.0031L-1.96182 -3.71884L26.3225 24.5654ZM-0.743759 -2.50078C2.04598 -5.29052 5.35788 -7.50346 9.00285 -9.01326L39.6175 64.8971C45.6786 62.3865 51.1858 58.7067 55.8248 54.0678L-0.743759 -2.50078ZM9.00285 -9.01326C12.6478 -10.523 16.5545 -11.3001 20.4998 -11.3001L20.4997 68.6999C27.0602 68.6999 33.5564 67.4077 39.6175 64.8971L9.00285 -9.01326ZM20.4998 -11.3001C24.445 -11.3001 28.3517 -10.523 31.9967 -9.01325L1.38197 64.8971C7.44305 67.4077 13.9393 68.6999 20.4997 68.6999L20.4998 -11.3001ZM31.9967 -9.01325C35.6416 -7.50346 38.9535 -5.29051 41.7433 -2.50077L-14.8253 54.0677C-10.1863 58.7067 -4.67911 62.3865 1.38197 64.8971L31.9967 -9.01325ZM41.7432 54.0678L42.9613 52.8497L-13.6072 -3.71885L-14.8253 -2.50079L41.7432 54.0678ZM-13.6072 52.8497C-9.12825 57.3287 -3.81091 60.8816 2.04118 63.3056L32.6559 -10.6047C36.5098 -9.00836 40.0116 -6.66853 42.9613 -3.71883L-13.6072 52.8497ZM2.04118 63.3056C7.89326 65.7296 14.1655 66.9773 20.4997 66.9773L20.4998 -13.0227C24.6713 -13.0227 28.8019 -12.2011 32.6559 -10.6047L2.04118 63.3056ZM20.4997 66.9773C26.834 66.9773 33.1062 65.7297 38.9583 63.3056L8.34364 -10.6047C12.1976 -12.2011 16.3283 -13.0227 20.4998 -13.0227L20.4997 66.9773ZM38.9583 63.3056C44.8104 60.8816 50.1277 57.3287 54.6067 52.8497L-1.96182 -3.71884C0.987874 -6.66853 4.48967 -9.00836 8.34364 -10.6047L38.9583 63.3056ZM-1.96182 52.8497L-0.743758 54.0678L55.8248 -2.50078L54.6067 -3.71884L-1.96182 52.8497Z" fill="#03B51A" mask="url(#path-3-inside-1_170_640)"/>
</svg>
