<svg width="470" height="470" viewBox="0 0 470 470" fill="none" xmlns="http://www.w3.org/2000/svg">
<g style="mix-blend-mode:plus-darker">
<path d="M235 427.813C346.071 427.813 436.113 416.223 436.113 401.926C436.113 387.628 346.071 376.038 235 376.038C123.928 376.038 33.8867 387.628 33.8867 401.926C33.8867 416.223 123.928 427.813 235 427.813Z" fill="#EBEBEB"/>
</g>
<path d="M200.146 150.278C185.38 178.731 189.912 210.469 219.734 223.449C246.869 235.246 287.936 219.36 303.409 197.648C319.835 174.608 276.635 162.835 290.513 155.433C274.49 152.783 264.347 155.743 253.902 149.789C248.903 146.933 245.516 137.415 238.432 132.798C230.524 127.643 209.63 131.992 200.146 150.278Z" fill="#263238"/>
<ellipse cx="292.646" cy="205.857" rx="7.07497" ry="7.39386" transform="rotate(-13.3826 292.646 205.857)" fill="#263238"/>
<ellipse cx="298.243" cy="198.823" rx="7.07497" ry="7.39386" transform="rotate(-13.3826 298.243 198.823)" fill="#263238"/>
<ellipse cx="278.088" cy="152.316" rx="7.07497" ry="7.39386" transform="rotate(-13.3826 278.088 152.316)" fill="#263238"/>
<ellipse cx="217.901" cy="136.233" rx="7.07497" ry="7.39386" transform="rotate(-13.3826 217.901 136.233)" fill="#263238"/>
<ellipse cx="193.746" cy="195.185" rx="7.07497" ry="7.39386" transform="rotate(-13.3826 193.746 195.185)" fill="#263238"/>
<ellipse cx="217.371" cy="218.064" rx="7.07497" ry="7.39386" transform="rotate(-13.3826 217.371 218.064)" fill="#263238"/>
<ellipse cx="193.346" cy="170.578" rx="7.07497" ry="3.69693" transform="rotate(-13.3826 193.346 170.578)" fill="#263238"/>
<ellipse cx="7.34252" cy="3.56412" rx="7.34252" ry="3.56412" transform="matrix(0.592689 0.805431 -0.785657 0.618662 196.974 146.025)" fill="#263238"/>
<ellipse cx="7.34252" cy="3.56412" rx="7.34252" ry="3.56412" transform="matrix(0.592689 0.805431 -0.785657 0.618662 250.852 139.797)" fill="#263238"/>
<ellipse cx="3.86763" cy="3.58886" rx="3.86763" ry="3.58886" transform="matrix(-0.337755 0.941234 -0.926587 -0.37608 269.931 150.938)" fill="#263238"/>
<ellipse cx="3.86763" cy="3.58886" rx="3.86763" ry="3.58886" transform="matrix(-0.337755 0.941234 -0.926587 -0.37608 245.442 132.064)" fill="#263238"/>
<ellipse cx="3.86763" cy="3.58886" rx="3.86763" ry="3.58886" transform="matrix(-0.337755 0.941234 -0.926587 -0.37608 235.982 130.515)" fill="#263238"/>
<ellipse cx="3.86763" cy="3.58886" rx="3.86763" ry="3.58886" transform="matrix(-0.337755 0.941234 -0.926587 -0.37608 212.321 138.043)" fill="#263238"/>
<ellipse cx="3.86763" cy="3.58886" rx="3.86763" ry="3.58886" transform="matrix(-0.337755 0.941234 -0.926587 -0.37608 206.723 145.078)" fill="#263238"/>
<ellipse cx="3.86763" cy="3.58886" rx="3.86763" ry="3.58886" transform="matrix(-0.337755 0.941234 -0.926587 -0.37608 202.834 159.302)" fill="#263238"/>
<ellipse cx="3.86763" cy="3.58886" rx="3.86763" ry="3.58886" transform="matrix(-0.337755 0.941234 -0.926587 -0.37608 199.392 160.121)" fill="#263238"/>
<ellipse cx="3.86763" cy="3.58886" rx="3.86763" ry="3.58886" transform="matrix(-0.337755 0.941234 -0.926587 -0.37608 196.798 172.139)" fill="#263238"/>
<ellipse cx="3.86763" cy="3.58886" rx="3.86763" ry="3.58886" transform="matrix(-0.337755 0.941234 -0.926587 -0.37608 196.787 179.738)" fill="#263238"/>
<ellipse cx="3.86763" cy="3.58886" rx="3.86763" ry="3.58886" transform="matrix(-0.337755 0.941234 -0.926587 -0.37608 201.923 201.321)" fill="#263238"/>
<ellipse cx="3.86763" cy="3.58886" rx="3.86763" ry="3.58886" transform="matrix(-0.337755 0.941234 -0.926587 -0.37608 207.076 207.695)" fill="#263238"/>
<ellipse cx="3.86763" cy="3.58886" rx="3.86763" ry="3.58886" transform="matrix(-0.337755 0.941234 -0.926587 -0.37608 213.95 213.662)" fill="#263238"/>
<ellipse cx="3.86763" cy="3.58886" rx="3.86763" ry="3.58886" transform="matrix(-0.337755 0.941234 -0.926587 -0.37608 225.547 224.2)" fill="#263238"/>
<ellipse cx="3.86763" cy="3.58886" rx="3.86763" ry="3.58886" transform="matrix(-0.337755 0.941234 -0.926587 -0.37608 234.577 223.952)" fill="#263238"/>
<ellipse cx="3.86763" cy="3.58886" rx="3.86763" ry="3.58886" transform="matrix(-0.337755 0.941234 -0.926587 -0.37608 247.052 222.883)" fill="#263238"/>
<ellipse cx="3.86763" cy="3.58886" rx="3.86763" ry="3.58886" transform="matrix(-0.337755 0.941234 -0.926587 -0.37608 255.653 220.836)" fill="#263238"/>
<ellipse cx="3.86763" cy="3.58886" rx="3.86763" ry="3.58886" transform="matrix(-0.337755 0.941234 -0.926587 -0.37608 260.39 217.812)" fill="#263238"/>
<ellipse cx="3.86763" cy="3.58886" rx="3.86763" ry="3.58886" transform="matrix(-0.337755 0.941234 -0.926587 -0.37608 250.919 223.865)" fill="#263238"/>
<ellipse cx="3.86763" cy="3.58886" rx="3.86763" ry="3.58886" transform="matrix(-0.337755 0.941234 -0.926587 -0.37608 246.186 226.891)" fill="#263238"/>
<ellipse cx="3.86763" cy="3.58886" rx="3.86763" ry="3.58886" transform="matrix(-0.337755 0.941234 -0.926587 -0.37608 241.453 229.918)" fill="#263238"/>
<ellipse cx="3.86763" cy="3.58886" rx="3.86763" ry="3.58886" transform="matrix(-0.337755 0.941234 -0.926587 -0.37608 237.155 227.142)" fill="#263238"/>
<ellipse cx="3.86763" cy="3.58886" rx="3.86763" ry="3.58886" transform="matrix(-0.337755 0.941234 -0.926587 -0.37608 230.71 222.973)" fill="#263238"/>
<ellipse cx="3.86763" cy="3.58886" rx="3.86763" ry="3.58886" transform="matrix(-0.337755 0.941234 -0.926587 -0.37608 222.97 221.012)" fill="#263238"/>
<ellipse cx="3.86763" cy="3.58886" rx="3.86763" ry="3.58886" transform="matrix(-0.337755 0.941234 -0.926587 -0.37608 262.965 220.998)" fill="#263238"/>
<ellipse cx="3.86763" cy="3.58886" rx="3.86763" ry="3.58886" transform="matrix(-0.337755 0.941234 -0.926587 -0.37608 271.141 217.151)" fill="#263238"/>
<ellipse cx="3.86763" cy="3.58886" rx="3.86763" ry="3.58886" transform="matrix(-0.337755 0.941234 -0.926587 -0.37608 285.345 208.074)" fill="#263238"/>
<ellipse cx="3.86763" cy="3.58886" rx="3.86763" ry="3.58886" transform="matrix(-0.337755 0.941234 -0.926587 -0.37608 290.496 214.448)" fill="#263238"/>
<ellipse cx="3.86763" cy="3.58886" rx="3.86763" ry="3.58886" transform="matrix(-0.337755 0.941234 -0.926587 -0.37608 291.354 218.047)" fill="#263238"/>
<ellipse cx="3.86763" cy="3.58886" rx="3.86763" ry="3.58886" transform="matrix(-0.337755 0.941234 -0.926587 -0.37608 294.356 223.029)" fill="#263238"/>
<ellipse cx="3.86763" cy="3.58886" rx="3.86763" ry="3.58886" transform="matrix(-0.337755 0.941234 -0.926587 -0.37608 289.214 209.055)" fill="#263238"/>
<ellipse cx="3.86763" cy="3.58886" rx="3.86763" ry="3.58886" transform="matrix(-0.337755 0.941234 -0.926587 -0.37608 294.377 207.826)" fill="#263238"/>
<ellipse cx="3.86763" cy="3.58886" rx="3.86763" ry="3.58886" transform="matrix(-0.337755 0.941234 -0.926587 -0.37608 298.672 210.602)" fill="#263238"/>
<ellipse cx="3.86763" cy="3.58886" rx="3.86763" ry="3.58886" transform="matrix(-0.337755 0.941234 -0.926587 -0.37608 310.311 190.737)" fill="#263238"/>
<ellipse cx="3.86763" cy="3.58886" rx="3.86763" ry="3.58886" transform="matrix(-0.337755 0.941234 -0.926587 -0.37608 313.76 182.313)" fill="#263238"/>
<ellipse cx="3.86763" cy="3.58886" rx="3.86763" ry="3.58886" transform="matrix(-0.337755 0.941234 -0.926587 -0.37608 315.918 176.102)" fill="#263238"/>
<ellipse cx="3.86763" cy="3.58886" rx="3.86763" ry="3.58886" transform="matrix(-0.337755 0.941234 -0.926587 -0.37608 315.499 166.7)" fill="#263238"/>
<ellipse cx="3.86763" cy="3.58886" rx="3.86763" ry="3.58886" transform="matrix(-0.337755 0.941234 -0.926587 -0.37608 312.931 155.909)" fill="#263238"/>
<ellipse cx="3.86763" cy="3.58886" rx="3.86763" ry="3.58886" transform="matrix(-0.337755 0.941234 -0.926587 -0.37608 315.935 160.893)" fill="#263238"/>
<ellipse cx="2.59112" cy="3.58886" rx="2.59112" ry="3.58886" transform="matrix(-0.337755 0.941234 -0.926587 -0.37608 287.812 141.479)" fill="#263238"/>
<ellipse cx="3.86763" cy="3.58886" rx="3.86763" ry="3.58886" transform="matrix(-0.337755 0.941234 -0.926587 -0.37608 274.667 147.914)" fill="#263238"/>
<ellipse cx="3.86763" cy="3.58886" rx="3.86763" ry="3.58886" transform="matrix(-0.337755 0.941234 -0.926587 -0.37608 266.065 149.96)" fill="#263238"/>
<ellipse cx="3.86763" cy="3.58886" rx="3.86763" ry="3.58886" transform="matrix(-0.337755 0.941234 -0.926587 -0.37608 252.316 138.028)" fill="#263238"/>
<ellipse cx="3.86763" cy="3.58886" rx="3.86763" ry="3.58886" transform="matrix(-0.337755 0.941234 -0.926587 -0.37608 248.02 135.254)" fill="#263238"/>
<ellipse cx="3.86763" cy="3.58886" rx="3.86763" ry="3.58886" transform="matrix(-0.337755 0.941234 -0.926587 -0.37608 241.146 129.287)" fill="#263238"/>
<ellipse cx="3.86763" cy="3.58886" rx="3.86763" ry="3.58886" transform="matrix(-0.337755 0.941234 -0.926587 -0.37608 231.688 127.737)" fill="#263238"/>
<ellipse cx="3.86763" cy="5.77504" rx="3.86763" ry="5.77504" transform="matrix(-0.337755 0.941234 -0.926587 -0.37608 294.633 147.669)" fill="#263238"/>
<path d="M289.426 166.766C286.963 173.346 285.243 180.33 285.459 187.587C285.527 189.422 285.843 191.241 286.399 192.992C286.925 194.731 287.536 196.423 288.138 198.105C289.397 201.442 290.638 204.77 291.71 208.126C293.971 214.77 295.257 221.707 295.526 228.721C295.673 235.729 294.489 242.702 292.039 249.269C293.627 246.103 294.86 242.771 295.714 239.334C296.518 235.86 296.962 232.313 297.04 228.749C297.092 221.551 295.935 214.395 293.618 207.58C292.509 204.168 291.212 200.812 289.933 197.494C288.655 194.176 287.282 190.914 287.029 187.511C286.757 184.039 286.889 180.547 287.423 177.106C287.881 173.622 288.549 170.169 289.426 166.766Z" fill="#263238"/>
<path d="M238.76 159.903C236.241 166.624 233.975 173.43 231.136 179.963C229.735 183.223 228.134 186.394 226.342 189.457C224.566 192.456 222.31 195.285 220.204 198.199C218.099 201.113 216.049 204.121 214.179 207.223C212.329 210.354 210.756 213.641 209.479 217.046C208.267 220.49 207.548 224.088 207.345 227.734C207.329 231.396 208.062 235.024 209.498 238.393C208.451 234.966 208.056 231.373 208.332 227.8C208.717 224.291 209.593 220.855 210.936 217.591C213.681 211.077 217.638 205.127 221.868 199.355C223.927 196.422 226.183 193.602 228.016 190.397C229.79 187.236 231.318 183.942 232.584 180.546C235.063 173.798 237.125 166.904 238.76 159.903Z" fill="#263238"/>
<path d="M248.075 206.584C258.753 229.576 277.864 254.834 290.713 260.671C299.173 264.535 338.061 250.754 353.769 242.426C358.929 239.69 345.064 211.725 338.334 208.022C335.448 206.424 300.828 229.999 297.378 227.762C291.39 223.842 277.986 212.722 260.032 199.712C247.943 190.961 242.115 193.771 248.075 206.584Z" fill="#C47B54"/>
<path d="M268.727 243.892L290.535 220.392C290.535 220.392 272.196 204.657 259.562 197.268C246.929 189.88 239.033 193.179 249.044 212.092C254.842 223.146 261.42 233.773 268.727 243.892Z" fill="#04695E"/>
<path d="M285.262 217.686C282.028 220.644 278.867 223.68 275.777 226.794C274.254 228.336 272.713 229.849 271.218 231.41C269.724 232.97 268.257 234.756 266.706 236.364C266.603 236.476 266.763 236.664 266.875 236.552C268.417 235.048 270.071 233.647 271.575 232.152C273.079 230.658 274.724 229.003 276.275 227.452C279.365 224.319 282.382 221.123 285.328 217.864C285.478 217.742 285.356 217.601 285.262 217.686Z" fill="#263238"/>
<path opacity="0.1" d="M285.092 226.249L268.727 243.893C261.418 233.772 254.837 223.145 249.034 212.092C242.35 199.449 243.657 193.781 249.034 193.631L285.092 226.249Z" fill="black"/>
<path opacity="0.1" d="M283.401 214.489L262.655 235.113L261.386 233.167L281.615 213.061L283.401 214.489ZM286.484 217.009L264.864 238.469L266.161 240.349L288.204 218.437L286.484 217.009ZM268.549 243.639L268.727 243.893L273.907 238.309L268.549 243.639Z" fill="black"/>
<path d="M289.238 221.784C290.723 222.78 292.199 223.805 293.703 224.773C294.446 225.262 295.188 225.713 295.95 226.221C296.665 226.694 297.427 227.091 298.225 227.405C298.612 227.411 298.997 227.347 299.362 227.217C299.776 227.104 300.199 226.963 300.612 226.822C301.439 226.521 302.257 226.183 303.075 225.826C304.701 225.121 306.309 224.341 307.907 223.532C311.112 221.981 314.252 220.261 317.382 218.531C318.942 217.676 320.503 216.792 322.082 215.89L326.735 213.211C325.297 214.273 323.811 215.279 322.326 216.285C320.841 217.291 319.309 218.221 317.777 219.161C314.712 221.041 311.554 222.743 308.377 224.378C306.76 225.168 305.134 225.92 303.47 226.615C302.633 226.963 301.797 227.292 300.932 227.555C300.499 227.696 300.067 227.847 299.616 227.95C299.129 228.098 298.617 228.143 298.112 228.082C297.252 227.714 296.438 227.247 295.687 226.691C294.944 226.183 294.211 225.657 293.496 225.121C292.021 224.049 290.601 222.949 289.238 221.784Z" fill="#263238"/>
<path d="M94.0004 392.432C93.7278 396.022 103.993 397.047 108.27 394.725C109.633 393.983 113.477 390.74 118.149 386.613C128.433 377.514 142.655 364.203 142.655 364.203L153.192 368.903L204.657 386.04L226.334 329.94C226.334 329.94 201.424 319.403 177.745 309.975C174.107 308.527 170.516 307.155 167.02 305.764L166.38 305.5C150.485 299.381 137.325 294.756 135.971 295.715C132.334 298.225 94.2354 388.813 94.0004 392.432Z" fill="#C47B54"/>
<path d="M94.0004 392.422C93.7278 396.022 103.983 397.046 108.27 394.734C109.623 393.991 113.477 390.739 118.14 386.603C128.48 377.523 142.655 364.203 142.655 364.203L153.192 368.903L154.912 369.467L178.553 310.247L177.792 309.937L167.057 305.735C166.85 305.641 166.625 305.556 166.418 305.481C150.532 299.371 137.363 294.737 136 295.686C132.324 298.224 94.2354 388.821 94.0004 392.422Z" fill="#04695E"/>
<path opacity="0.1" d="M166.709 339.829L154.865 369.505L153.154 368.941L142.617 364.241C142.617 364.241 128.395 377.561 118.102 386.641C113.402 390.777 109.585 394.03 108.232 394.772C103.945 397.085 93.6898 396.06 93.9624 392.46C94.1786 389.574 118.684 330.824 130.284 306.29L166.709 339.829Z" fill="black"/>
<path d="M118.919 379.271C118.059 379.238 117.197 379.276 116.343 379.384C116.292 378.803 116.207 378.226 116.09 377.654C115.962 377.018 115.796 376.39 115.591 375.774C116.575 375.199 117.518 374.555 118.411 373.847C118.515 373.763 118.411 373.612 118.27 373.669C117.33 374.158 116.39 374.693 115.45 375.257C114.492 372.682 113.006 370.335 111.089 368.367C110.417 367.676 109.684 367.047 108.899 366.487C108.09 365.895 107.188 365.547 106.351 364.983C106.276 364.936 106.201 365.058 106.285 365.115C106.977 365.602 107.608 366.17 108.165 366.807C108.739 367.408 109.303 368.001 109.839 368.64C110.849 369.877 111.734 371.212 112.48 372.625C113.073 373.763 113.57 374.948 113.965 376.169L113.683 376.348L112.95 376.827C112.687 377.015 112.461 377.203 112.207 377.401C112.151 377.448 112.207 377.56 112.273 377.532C112.536 377.429 112.79 377.344 113.053 377.213L113.89 376.799L114.116 376.667C114.398 377.609 114.624 378.566 114.792 379.534C114.181 379.61 113.57 379.685 112.969 379.788C112.884 379.788 112.912 379.939 112.969 379.929C113.58 379.929 114.2 379.929 114.849 379.863C115.001 380.797 115.098 381.739 115.14 382.683C115.14 383.736 115.14 384.789 115.14 385.832C115.04 386.928 114.845 388.013 114.557 389.075C114.557 389.151 114.661 389.207 114.698 389.075C116.122 386.158 116.729 382.91 116.456 379.675C117.319 379.627 118.177 379.51 119.022 379.328C119.016 379.307 119.001 379.289 118.982 379.278C118.963 379.268 118.94 379.265 118.919 379.271Z" fill="#263238"/>
<path d="M159.678 313.96C158.825 313.829 157.965 313.751 157.102 313.725C157.262 313.537 157.431 313.358 157.582 313.161C159.264 311 160.579 308.577 161.473 305.989C161.529 305.838 161.304 305.763 161.229 305.885C159.715 308.535 157.857 310.972 155.702 313.133C155.617 312.926 155.532 312.719 155.457 312.503C155.382 312.287 155.288 312.023 155.213 311.77C155.15 311.513 155.059 311.264 154.94 311.027C154.932 311.011 154.918 310.999 154.902 310.992C154.885 310.985 154.866 310.984 154.849 310.99C154.832 310.996 154.818 311.007 154.809 311.023C154.8 311.038 154.796 311.056 154.799 311.074C154.806 311.339 154.85 311.602 154.931 311.854C154.997 312.108 155.053 312.362 155.119 312.606C155.185 312.851 155.279 313.18 155.363 313.471L155.194 313.612L152.637 313.462C152.617 313.462 152.598 313.47 152.584 313.484C152.57 313.498 152.562 313.517 152.562 313.537C152.562 313.557 152.57 313.576 152.584 313.59C152.598 313.604 152.617 313.612 152.637 313.612C153.38 313.734 154.113 313.838 154.856 313.932C154.014 314.705 153.118 315.418 152.177 316.065C149.333 317.911 146.086 319.043 142.711 319.365C142.56 318.726 142.4 318.086 142.259 317.485C142.259 317.391 142.109 317.438 142.119 317.532C142.241 318.152 142.316 318.791 142.401 319.412C140.689 319.587 138.965 319.612 137.249 319.487C134.183 319.259 131.156 318.659 128.235 317.701C128.15 317.701 128.103 317.804 128.178 317.851C130.676 319.252 133.399 320.206 136.225 320.671C138.332 321.005 140.47 321.099 142.598 320.953C142.691 321.678 142.822 322.396 142.993 323.106C143.005 323.139 143.028 323.166 143.058 323.184C143.088 323.201 143.123 323.208 143.158 323.202C143.192 323.197 143.224 323.18 143.247 323.153C143.27 323.127 143.283 323.094 143.284 323.059C143.26 322.336 143.175 321.616 143.03 320.906C143.594 320.859 144.158 320.812 144.713 320.728C147.421 320.36 150.021 319.429 152.346 317.992C153.654 317.152 154.862 316.165 155.946 315.05L156.256 315.812C156.444 316.225 156.604 316.846 157.008 317.09C157.074 317.137 157.149 317.09 157.159 316.996C157.159 316.744 157.09 316.498 156.961 316.282C156.848 316.028 156.736 315.783 156.632 315.53C156.529 315.276 156.416 314.975 156.303 314.702C156.463 314.533 156.613 314.345 156.764 314.167C157.73 314.26 158.702 314.26 159.668 314.167C159.8 314.129 159.8 313.96 159.678 313.96Z" fill="#263238"/>
<path d="M172.593 310.2C170.929 313.631 169.491 317.184 167.959 320.681C166.427 324.178 165.026 327.571 163.588 331.021C160.693 338.021 157.848 345.052 155.053 352.115C153.483 356.063 151.941 360.02 150.588 364.043C150.588 364.119 150.691 364.166 150.729 364.09C154.019 357.285 156.811 350.235 159.715 343.251C162.62 336.266 165.524 329.31 168.175 322.26C169.698 318.265 171.343 314.289 172.715 310.238C172.772 310.134 172.631 310.078 172.593 310.2Z" fill="#263238"/>
<path d="M162.517 379.328C162.517 379.328 274.377 405.018 315.558 397.601C335.298 394.048 349.473 368.706 339.998 349.285C331.162 331.172 277.159 312.795 261.903 302.135C257.09 298.798 257.607 285.553 257.607 285.553L217.525 285.018C217.525 285.018 203.237 307.709 209.291 318.764C209.39 318.956 209.506 319.138 209.639 319.309L191.553 312.437L162.517 379.328Z" fill="#37474F"/>
<path d="M187.285 349.07C191.76 339.341 196.638 329.941 201.16 320.259C201.244 320.071 201.545 320.174 201.46 320.362C197.183 330.091 193.226 339.952 188.77 349.605C184.315 359.259 179.54 368.791 174.84 378.379C174.717 378.623 174.313 378.492 174.426 378.228C178.731 368.481 182.848 358.733 187.285 349.07Z" fill="#263238"/>
<path d="M209.375 319.779C212.139 321.386 214.771 323.257 217.459 324.986C220.148 326.716 222.77 328.38 225.477 329.997C230.948 333.249 236.551 336.285 242.209 339.18C253.628 345.032 265.426 350.11 277.525 354.38C284.274 356.749 291.089 359.08 298.036 360.791C298.186 360.791 298.121 361.054 297.961 361.026C292.913 359.813 287.856 358.62 282.864 357.21C285.515 358.883 288.11 360.622 290.751 362.314C290.778 362.331 290.798 362.359 290.805 362.391C290.812 362.422 290.806 362.456 290.789 362.483C290.771 362.51 290.744 362.53 290.712 362.537C290.68 362.544 290.647 362.538 290.619 362.521C287.743 360.782 284.82 359.108 281.962 357.332C281.928 357.313 281.898 357.287 281.875 357.255C281.851 357.224 281.835 357.187 281.827 357.149C281.819 357.111 281.819 357.071 281.828 357.033C281.837 356.995 281.854 356.959 281.877 356.928L279.321 356.185C273.135 354.267 267.038 352.102 261.028 349.69C249.154 344.91 237.71 339.124 226.822 332.394C223.745 330.514 220.712 328.555 217.722 326.519C214.708 324.576 211.823 322.441 209.084 320.127C208.886 319.957 209.159 319.647 209.375 319.779Z" fill="#263238"/>
<path d="M321.762 207.862C320.096 208.453 318.34 208.746 316.573 208.727C311.107 208.554 305.876 206.465 301.796 202.824C301.167 202.278 300.619 201.645 300.17 200.944C299.221 199.358 298.512 197.642 298.064 195.849C297.44 193.512 297.46 191.049 298.122 188.723C298.784 186.396 300.063 184.292 301.824 182.633C302.833 181.574 304.084 180.776 305.469 180.306C306.854 179.836 308.332 179.709 309.777 179.935C310.378 180.051 310.965 180.233 311.525 180.48C311.811 180.6 312.09 180.735 312.362 180.884C315.004 182.425 316.973 184.9 317.879 187.822C319.374 192.108 319.327 196.846 320.812 199.271C322.448 201.931 325.597 202.194 326.546 202.749C329.206 204.262 324.102 207.026 321.762 207.862Z" fill="#263238"/>
<path d="M316.582 209.62C310.35 209.338 304.25 208.107 300.762 202.438C299.496 200.414 298.583 198.189 298.064 195.858C297.249 192.54 297.723 189.037 299.39 186.054C299.493 185.876 299.813 186.054 299.728 186.205C297.406 191.516 298.422 196.949 301.176 201.874C301.373 202.222 301.58 202.561 301.796 202.871C305.171 207.872 310.745 208.953 316.582 209.517C316.648 209.479 316.648 209.62 316.582 209.62Z" fill="#263238"/>
<path d="M325.531 201.348C321.301 200.286 320.446 195.502 319.684 191.864C319.374 190.35 318.933 188.866 318.368 187.427C317.877 186.194 317.27 185.01 316.554 183.893C315.36 182.179 313.588 180.955 311.563 180.443C310.475 180.137 309.334 180.066 308.216 180.236C308.216 180.236 308.16 180.18 308.216 180.17C308.735 180.008 309.272 179.916 309.814 179.898C311.455 179.889 313.071 180.293 314.514 181.073C316.582 182.163 317.767 184.372 318.669 186.44C318.763 186.637 318.838 186.835 318.923 187.032C319.724 189.431 320.318 191.893 320.7 194.392C321.301 197.316 322.514 200.183 325.522 201.254C325.616 201.273 325.588 201.358 325.531 201.348Z" fill="#263238"/>
<path d="M297.726 189.589C298.619 190.529 302.595 189.589 305.161 187.417C308.057 184.954 309.42 180.715 309.166 179.954C308.912 179.192 305.697 179.089 305.697 179.089C305.697 179.089 303.93 183.168 302.031 184.287C300.484 185.085 298.837 185.673 297.134 186.035L297.726 189.589Z" fill="#04695E"/>
<path d="M320.822 210.118C316.272 224.951 306.017 238.14 297.829 246.534C294.549 249.899 266.95 247.201 257.663 242.642C254.618 241.148 259.684 222.601 263.679 220.59C266.396 219.227 289.257 228.251 290.939 226.578C294.098 223.513 302.219 214.969 312.456 207.101C319.365 201.799 323.228 202.26 320.822 210.118Z" fill="#C47B54"/>
<path d="M266.114 220.562C258.594 218.155 249.438 214.715 240.734 216.661C239.786 216.854 238.928 217.353 238.29 218.08C234.398 218.889 233.59 220.966 233.59 220.966C230.187 222.846 229.67 225.074 229.67 225.074C229.67 225.074 225.111 226.07 225.252 228.928C225.403 232.133 231.785 230.112 235.978 231.137C245.584 233.506 259.985 239.907 262.683 240.866L266.114 220.562Z" fill="#C47B54"/>
<path d="M247.784 226.597C244.981 225.872 242.133 225.338 239.258 224.999C236.093 224.83 232.919 224.896 229.764 225.196C229.747 225.191 229.733 225.18 229.723 225.165C229.713 225.151 229.707 225.134 229.707 225.116C229.707 225.099 229.713 225.082 229.723 225.067C229.733 225.053 229.747 225.042 229.764 225.037C235.807 223.855 242.058 224.349 247.84 226.465C247.943 226.541 247.925 226.625 247.784 226.597Z" fill="#263238"/>
<path d="M250.04 221.003C247.22 220.533 242.322 219.744 233.599 221.116C233.599 221.116 233.552 221.116 233.599 221.06C238.959 219.484 244.65 219.429 250.04 220.9C250.246 220.9 250.237 221.032 250.04 221.003Z" fill="#263238"/>
<path d="M251.215 217.977C246.922 217.447 242.577 217.504 238.3 218.146C243.94 216.896 246.139 217.084 251.272 217.864C251.441 217.845 251.403 218.005 251.215 217.977Z" fill="#263238"/>
<path d="M247.389 234.756C248.517 235.564 248.104 236.156 245.641 236.279C243.178 236.401 233.346 234.775 233.073 238.253C232.801 241.731 246.675 243.15 250.792 243.31C254.898 243.478 258.984 242.653 262.702 240.903C260.08 239.954 252.512 236.683 247.389 234.756Z" fill="#C47B54"/>
<path d="M298.967 218.767C298.027 219.913 297.087 221.004 296.044 222.085C295 223.166 294.013 224.209 292.96 225.243C292.415 225.751 291.917 226.249 291.297 226.747C291.111 226.902 290.88 226.991 290.639 227.001C290.439 227.02 290.237 227.02 290.037 227.001C289.662 226.979 289.289 226.939 288.918 226.879C287.458 226.632 286.019 226.273 284.613 225.807C286.08 225.986 287.537 226.211 288.984 226.334C289.341 226.334 289.699 226.352 290.056 226.39C290.222 226.405 290.388 226.405 290.554 226.39C290.683 226.386 290.806 226.336 290.902 226.249C291.409 225.807 291.955 225.309 292.472 224.764C293.534 223.749 294.577 222.724 295.668 221.728C296.758 220.731 297.83 219.707 298.967 218.767Z" fill="#263238"/>
<path d="M297.66 218.08L312.963 232.358C312.963 232.358 321.17 217.516 322.41 208.247C323.651 198.979 319.139 199.703 313.64 203.811C308.141 207.918 297.66 218.08 297.66 218.08Z" fill="#455A64"/>
<path d="M301.213 216.651C301.11 216.557 301.016 216.595 301.11 216.651C305.155 220.894 309.462 224.878 314.007 228.58C314.007 228.58 314.082 228.58 314.054 228.523C312.193 226.352 302.294 217.704 301.213 216.651Z" fill="#263238"/>
<path d="M322.42 208.285C321.179 217.563 313.02 232.396 313.02 232.396L301.74 221.925L321.969 202.185C322.608 203.369 322.806 205.315 322.42 208.285Z" fill="#263238"/>
<path d="M354.38 207.251C352.866 208.158 351.206 208.794 349.473 209.131C344.081 210.054 338.536 209.056 333.804 206.311C333.077 205.885 332.412 205.359 331.83 204.751C330.583 203.388 329.544 201.848 328.746 200.182C327.668 198.015 327.197 195.596 327.384 193.183C327.571 190.77 328.409 188.452 329.809 186.477C330.588 185.239 331.654 184.208 332.918 183.472C334.181 182.735 335.604 182.315 337.065 182.247C337.678 182.237 338.29 182.297 338.889 182.426C339.207 182.485 339.521 182.563 339.829 182.661C342.729 183.631 345.153 185.663 346.616 188.348C348.947 192.249 349.84 196.902 351.786 198.979C353.92 201.263 357.059 200.859 358.093 201.245C360.904 202.241 356.448 205.963 354.38 207.251Z" fill="#263238"/>
<path d="M349.595 209.968C343.429 210.908 337.206 210.908 332.675 206.095C331.032 204.361 329.694 202.362 328.718 200.182C327.26 197.094 327.022 193.569 328.051 190.312C328.126 190.115 328.464 190.181 328.417 190.397C327.205 196.037 329.282 201.188 332.976 205.437C333.239 205.738 333.503 206.029 333.775 206.292C338.08 210.513 343.767 210.456 349.595 209.845C349.68 209.864 349.68 209.958 349.595 209.968Z" fill="#263238"/>
<path d="M356.721 200.117C352.359 199.919 350.573 195.417 349.097 191.995C348.487 190.576 347.757 189.211 346.917 187.915C346.19 186.802 345.356 185.763 344.426 184.813C342.915 183.373 340.936 182.525 338.851 182.426C337.724 182.343 336.593 182.504 335.533 182.896C335.533 182.896 335.467 182.896 335.533 182.839C336.008 182.573 336.517 182.374 337.047 182.247C338.663 181.902 340.341 181.97 341.925 182.445C344.172 183.103 345.77 185.03 347.076 186.872C347.199 187.051 347.321 187.229 347.434 187.408C348.704 189.595 349.783 191.888 350.658 194.26C351.823 197.005 353.581 199.571 356.749 200.023C356.761 200.026 356.772 200.035 356.778 200.046C356.784 200.058 356.786 200.071 356.782 200.084C356.778 200.096 356.77 200.107 356.758 200.113C356.747 200.119 356.733 200.12 356.721 200.117Z" fill="#263238"/>
<path d="M327.12 194.157C328.183 194.909 331.886 193.217 333.964 190.547C336.314 187.549 336.784 183.121 336.398 182.426C336.013 181.73 332.836 182.275 332.836 182.275C332.836 182.275 331.896 186.618 330.279 188.103C328.92 189.194 327.422 190.098 325.823 190.792L327.12 194.157Z" fill="#04695E"/>
<path d="M340.44 378.378H309.42C309.42 378.378 294.38 328.963 296.391 314.787C299.155 295.677 306.026 247.107 306.026 247.107H340.458C340.458 247.107 329 298.995 327.505 316.714C326.781 325.372 340.44 378.378 340.44 378.378Z" fill="#7F4F35"/>
<path d="M289.219 406.353C290.892 406.889 338.738 406.25 340.553 405.075C341.239 404.633 342.038 396.173 342.038 387.732C342.038 383.436 335.411 358.037 335.411 358.037L304.391 358.366L311.807 389.602C311.807 389.602 292.641 397.978 290.798 399.482C288.956 400.986 287.537 405.817 289.219 406.353Z" fill="#C47B54"/>
<path d="M341.944 393.268C341.7 399.528 341.098 404.726 340.553 405.074C338.748 406.249 290.902 406.888 289.219 406.352C287.537 405.817 288.956 400.985 290.789 399.481C291.786 398.673 297.745 395.89 303.066 393.484C297.04 396.595 292.509 399.942 304.476 399.18C315.68 398.466 335.825 394.508 341.944 393.268Z" fill="#263238"/>
<path d="M384.679 202.077C379.667 170.415 357.176 147.568 325.473 154.829C296.635 161.447 273.022 198.613 273.462 225.271C273.924 253.563 315.676 237.387 308.903 251.583C323.37 244.201 329.774 235.798 341.714 234.387C347.432 233.717 355.809 239.365 364.25 238.874C373.675 238.326 387.905 222.421 384.679 202.077Z" fill="#263238"/>
<ellipse cx="277.248" cy="212.274" rx="7.07497" ry="7.39386" transform="rotate(130.195 277.248 212.274)" fill="#263238"/>
<ellipse cx="276.921" cy="221.257" rx="7.07497" ry="7.39386" transform="rotate(130.195 276.921 221.257)" fill="#263238"/>
<ellipse cx="320.752" cy="246.712" rx="7.07497" ry="7.39386" transform="rotate(130.195 320.752 246.712)" fill="#263238"/>
<ellipse cx="378.731" cy="223.919" rx="7.07497" ry="7.39386" transform="rotate(130.195 378.731 223.919)" fill="#263238"/>
<ellipse cx="363.165" cy="162.14" rx="7.07497" ry="7.39386" transform="rotate(130.195 363.165 162.14)" fill="#263238"/>
<ellipse cx="330.572" cy="157.758" rx="7.07497" ry="7.39386" transform="rotate(130.195 330.572 157.758)" fill="#263238"/>
<ellipse cx="378.097" cy="181.704" rx="7.07497" ry="3.69693" transform="rotate(130.195 378.097 181.704)" fill="#263238"/>
<ellipse cx="7.34252" cy="3.56412" rx="7.34252" ry="3.56412" transform="matrix(-0.955128 -0.296193 0.264861 -0.964287 389.756 203.614)" fill="#263238"/>
<ellipse cx="7.34252" cy="3.56412" rx="7.34252" ry="3.56412" transform="matrix(-0.955128 -0.296193 0.264861 -0.964287 350.102 240.615)" fill="#263238"/>
<ellipse cx="3.86763" cy="3.58886" rx="3.86763" ry="3.58886" transform="matrix(-0.287071 -0.957909 0.968879 -0.247536 328.135 242.979)" fill="#263238"/>
<ellipse cx="3.86763" cy="3.58886" rx="3.86763" ry="3.58886" transform="matrix(-0.287071 -0.957909 0.968879 -0.247536 359.045 243.626)" fill="#263238"/>
<ellipse cx="3.86763" cy="3.58886" rx="3.86763" ry="3.58886" transform="matrix(-0.287071 -0.957909 0.968879 -0.247536 367.577 239.256)" fill="#263238"/>
<ellipse cx="3.86763" cy="3.58886" rx="3.86763" ry="3.58886" transform="matrix(-0.287071 -0.957909 0.968879 -0.247536 382.146 219.15)" fill="#263238"/>
<ellipse cx="3.86763" cy="3.58886" rx="3.86763" ry="3.58886" transform="matrix(-0.287071 -0.957909 0.968879 -0.247536 382.474 210.165)" fill="#263238"/>
<ellipse cx="3.86763" cy="3.58886" rx="3.86763" ry="3.58886" transform="matrix(-0.287071 -0.957909 0.968879 -0.247536 377.158 196.411)" fill="#263238"/>
<ellipse cx="3.86763" cy="3.58886" rx="3.86763" ry="3.58886" transform="matrix(-0.287071 -0.957909 0.968879 -0.247536 379.442 193.708)" fill="#263238"/>
<ellipse cx="3.86763" cy="3.58886" rx="3.86763" ry="3.58886" transform="matrix(-0.287071 -0.957909 0.968879 -0.247536 374.394 182.498)" fill="#263238"/>
<ellipse cx="3.86763" cy="3.58886" rx="3.86763" ry="3.58886" transform="matrix(-0.287071 -0.957909 0.968879 -0.247536 369.89 176.376)" fill="#263238"/>
<ellipse cx="3.86763" cy="3.58886" rx="3.86763" ry="3.58886" transform="matrix(-0.287071 -0.957909 0.968879 -0.247536 352.943 162.059)" fill="#263238"/>
<ellipse cx="3.86763" cy="3.58886" rx="3.86763" ry="3.58886" transform="matrix(-0.287071 -0.957909 0.968879 -0.247536 345.011 159.989)" fill="#263238"/>
<ellipse cx="3.86763" cy="3.58886" rx="3.86763" ry="3.58886" transform="matrix(-0.287071 -0.957909 0.968879 -0.247536 335.938 159.27)" fill="#263238"/>
<ellipse cx="3.86763" cy="3.58886" rx="3.86763" ry="3.58886" transform="matrix(-0.287071 -0.957909 0.968879 -0.247536 320.35 157.675)" fill="#263238"/>
<ellipse cx="3.86763" cy="3.58886" rx="3.86763" ry="3.58886" transform="matrix(-0.287071 -0.957909 0.968879 -0.247536 313.23 163.236)" fill="#263238"/>
<ellipse cx="3.86763" cy="3.58886" rx="3.86763" ry="3.58886" transform="matrix(-0.287071 -0.957909 0.968879 -0.247536 303.828 171.504)" fill="#263238"/>
<ellipse cx="3.86763" cy="3.58886" rx="3.86763" ry="3.58886" transform="matrix(-0.287071 -0.957909 0.968879 -0.247536 298.121 178.258)" fill="#263238"/>
<ellipse cx="3.86763" cy="3.58886" rx="3.86763" ry="3.58886" transform="matrix(-0.287071 -0.957909 0.968879 -0.247536 296.105 183.503)" fill="#263238"/>
<ellipse cx="3.86763" cy="3.58886" rx="3.86763" ry="3.58886" transform="matrix(-0.287071 -0.957909 0.968879 -0.247536 300.133 173.01)" fill="#263238"/>
<ellipse cx="3.86763" cy="3.58886" rx="3.86763" ry="3.58886" transform="matrix(-0.287071 -0.957909 0.968879 -0.247536 302.145 167.765)" fill="#263238"/>
<ellipse cx="3.86763" cy="3.58886" rx="3.86763" ry="3.58886" transform="matrix(-0.287071 -0.957909 0.968879 -0.247536 304.155 162.519)" fill="#263238"/>
<ellipse cx="3.86763" cy="3.58886" rx="3.86763" ry="3.58886" transform="matrix(-0.287071 -0.957909 0.968879 -0.247536 309.262 162.201)" fill="#263238"/>
<ellipse cx="3.86763" cy="3.58886" rx="3.86763" ry="3.58886" transform="matrix(-0.287071 -0.957909 0.968879 -0.247536 316.924 161.729)" fill="#263238"/>
<ellipse cx="3.86763" cy="3.58886" rx="3.86763" ry="3.58886" transform="matrix(-0.287071 -0.957909 0.968879 -0.247536 324.316 158.711)" fill="#263238"/>
<ellipse cx="3.86763" cy="3.58886" rx="3.86763" ry="3.58886" transform="matrix(-0.287071 -0.957909 0.968879 -0.247536 292.142 182.469)" fill="#263238"/>
<ellipse cx="3.86763" cy="3.58886" rx="3.86763" ry="3.58886" transform="matrix(-0.287071 -0.957909 0.968879 -0.247536 287.847 190.418)" fill="#263238"/>
<ellipse cx="3.86763" cy="3.58886" rx="3.86763" ry="3.58886" transform="matrix(-0.287071 -0.957909 0.968879 -0.247536 281.807 206.155)" fill="#263238"/>
<ellipse cx="3.86763" cy="3.58886" rx="3.86763" ry="3.58886" transform="matrix(-0.907552 0.41994 -0.382359 -0.924014 285.744 197.025)" fill="#263238"/>
<ellipse cx="3.86763" cy="3.58886" rx="3.86763" ry="3.58886" transform="matrix(-0.907552 0.41994 -0.382359 -0.924014 283.782 200.161)" fill="#263238"/>
<ellipse cx="3.86763" cy="3.58886" rx="3.86763" ry="3.58886" transform="matrix(-0.907552 0.41994 -0.382359 -0.924014 282.34 205.797)" fill="#263238"/>
<ellipse cx="3.86763" cy="3.58886" rx="3.86763" ry="3.58886" transform="matrix(-0.907552 0.41994 -0.382359 -0.924014 288.686 192.326)" fill="#263238"/>
<ellipse cx="3.86763" cy="3.58886" rx="3.86763" ry="3.58886" transform="matrix(-0.287071 -0.957909 0.968879 -0.247536 274.688 211.718)" fill="#263238"/>
<ellipse cx="3.86763" cy="3.58886" rx="3.86763" ry="3.58886" transform="matrix(-0.287071 -0.957909 0.968879 -0.247536 269.582 212.035)" fill="#263238"/>
<ellipse cx="3.86763" cy="3.58886" rx="3.86763" ry="3.58886" transform="matrix(-0.287071 -0.957909 0.968879 -0.247536 272.012 234.929)" fill="#263238"/>
<ellipse cx="3.86763" cy="3.58886" rx="3.86763" ry="3.58886" transform="matrix(-0.287071 -0.957909 0.968879 -0.247536 285.249 243.987)" fill="#263238"/>
<ellipse cx="3.86763" cy="3.58886" rx="3.86763" ry="3.58886" transform="matrix(-0.287071 -0.957909 0.968879 -0.247536 278.976 241.718)" fill="#263238"/>
<ellipse cx="3.86763" cy="3.58886" rx="3.86763" ry="3.58886" transform="matrix(-0.287071 -0.957909 0.968879 -0.247536 275.289 239.84)" fill="#263238"/>
<ellipse cx="3.86763" cy="3.58886" rx="3.86763" ry="3.58886" transform="matrix(-0.287071 -0.957909 0.968879 -0.247536 288.935 245.867)" fill="#263238"/>
<ellipse cx="3.86763" cy="3.58886" rx="3.86763" ry="3.58886" transform="matrix(-0.287071 -0.957909 0.968879 -0.247536 294.11 246.648)" fill="#263238"/>
<ellipse cx="3.86763" cy="3.58886" rx="3.86763" ry="3.58886" transform="matrix(-0.287071 -0.957909 0.968879 -0.247536 305.169 252.286)" fill="#263238"/>
<ellipse cx="3.86763" cy="3.58886" rx="3.86763" ry="3.58886" transform="matrix(-0.287071 -0.957909 0.968879 -0.247536 299.793 250.059)" fill="#263238"/>
<ellipse cx="2.59112" cy="3.58886" rx="2.59112" ry="3.58886" transform="matrix(-0.287071 -0.957909 0.968879 -0.247536 362.298 228.528)" fill="#263238"/>
<ellipse cx="3.86763" cy="3.58886" rx="3.86763" ry="3.58886" transform="matrix(-0.287071 -0.957909 0.968879 -0.247536 326.119 248.225)" fill="#263238"/>
<ellipse cx="3.86763" cy="3.58886" rx="3.86763" ry="3.58886" transform="matrix(-0.287071 -0.957909 0.968879 -0.247536 331.825 241.47)" fill="#263238"/>
<ellipse cx="3.86763" cy="3.58886" rx="3.86763" ry="3.58886" transform="matrix(-0.287071 -0.957909 0.968879 -0.247536 349.973 242.907)" fill="#263238"/>
<ellipse cx="3.86763" cy="3.58886" rx="3.86763" ry="3.58886" transform="matrix(-0.287071 -0.957909 0.968879 -0.247536 344.836 243.713)" fill="#263238"/>
<ellipse cx="3.86763" cy="3.58886" rx="3.86763" ry="3.58886" transform="matrix(-0.287071 -0.957909 0.968879 -0.247536 337.463 239.954)" fill="#263238"/>
<ellipse cx="3.86763" cy="3.58886" rx="3.86763" ry="3.58886" transform="matrix(-0.287071 -0.957909 0.968879 -0.247536 341.149 241.834)" fill="#263238"/>
<ellipse cx="3.86763" cy="3.58886" rx="3.86763" ry="3.58886" transform="matrix(-0.287071 -0.957909 0.968879 -0.247536 355.077 242.589)" fill="#263238"/>
<ellipse cx="3.86763" cy="3.58886" rx="3.86763" ry="3.58886" transform="matrix(-0.287071 -0.957909 0.968879 -0.247536 364.151 243.31)" fill="#263238"/>
<ellipse cx="3.86763" cy="3.58886" rx="3.86763" ry="3.58886" transform="matrix(-0.287071 -0.957909 0.968879 -0.247536 372.682 238.941)" fill="#263238"/>
<ellipse cx="3.86763" cy="5.77504" rx="3.86763" ry="5.77504" transform="matrix(-0.287071 -0.957909 0.968879 -0.247536 312.771 253.83)" fill="#263238"/>
<path d="M303.065 393.484C305.562 392.833 308.189 392.883 310.659 393.63C313.129 394.376 315.344 395.789 317.062 397.714" fill="#263238"/>
<path d="M365.829 406.935C367.521 406.447 406.842 379.168 407.678 377.184C408.007 376.432 404.369 370.473 399.763 363.395C398.823 361.872 397.742 360.293 396.68 358.695C391.825 351.564 386.607 344.687 381.048 338.09L354.512 356.683L371.046 376.367L374.365 380.897C374.365 380.897 364.025 398.071 363.291 400.355C362.558 402.64 364.137 407.424 365.829 406.935Z" fill="#C47B54"/>
<path d="M407.687 377.185C406.841 379.168 367.531 406.447 365.839 406.935C364.147 407.424 362.614 402.63 363.301 400.355C363.733 398.917 368.001 391.623 371.093 386.387C367.38 392.807 364.344 399.547 374.628 391.745C383.172 385.25 396.868 371.751 401.888 366.713C405.441 372.24 407.96 376.555 407.687 377.185Z" fill="#263238"/>
<path d="M371.093 386.397C371.093 386.397 375.417 382.778 382.373 385.25L371.093 386.397Z" fill="#263238"/>
<path d="M391.905 351.823L366.318 370.745C366.318 370.745 335.664 337.469 331.651 324.901C326.293 308.104 320.371 271.547 320.371 271.547L316.46 270.306C311.563 267.214 306.609 251.45 306.045 247.098H351.494C351.494 247.098 358.121 266.02 354.568 277.723C354.568 277.723 362.812 310.162 365.265 314.9C371.648 327.27 391.905 351.823 391.905 351.823Z" fill="#7F4F35"/>
<path d="M355.743 254.815C355.743 254.862 301.966 254.815 301.571 254.496C301.374 254.345 307.211 215.016 313.425 204.535C314.994 201.846 323.765 197.513 329.856 202.222C342.649 212.149 355.941 254.543 355.743 254.815Z" fill="#455A64"/>
<path d="M301.571 254.496L288.176 306.252C288.176 306.252 302.99 314.318 320.211 316.01C337.432 317.702 365.876 305.782 365.876 305.782L355.743 254.816L301.571 254.496Z" fill="#455A64"/>
<path d="M365.209 302.426C354.793 305.998 335.608 311.901 322.702 311.901H322.42C310.031 311.817 296.542 306.628 288.975 303.216L289.454 301.336C296.842 304.673 310.369 309.927 322.439 310.012H322.711C335.288 310.012 354.558 304.062 364.842 300.537L365.209 302.426ZM364.005 296.363C353.543 299.907 334.95 305.556 322.702 305.556H322.42C310.895 305.481 298.046 300.687 290.46 297.35L289.98 299.23C297.698 302.633 310.548 307.38 322.392 307.455H322.683C335.251 307.455 353.769 301.815 364.353 298.262L364.005 296.363Z" fill="white"/>
<path d="M353.863 253.029C347.743 256.062 341.172 258.084 334.405 259.017C327.652 259.908 320.801 259.734 314.101 258.5C310.362 257.788 306.687 256.772 303.113 255.464C303.091 255.459 303.069 255.461 303.049 255.471C303.029 255.48 303.013 255.497 303.004 255.517C302.995 255.537 302.994 255.56 303 255.581C303.006 255.602 303.019 255.621 303.038 255.633C309.259 258.578 316.005 260.252 322.881 260.559C329.842 260.964 336.817 260.081 343.458 257.955C347.141 256.789 350.682 255.212 354.014 253.255C354.183 253.17 354.033 252.945 353.863 253.029Z" fill="#263238"/>
<path d="M323.266 198.453C328.163 199.092 327.787 204.591 326.03 208.991C324.272 213.39 321.236 216.586 317.964 216.304C314.693 216.022 315.37 210.965 315.37 210.965C315.37 210.965 312.935 214.725 311.074 213.86C309.213 212.995 315.614 197.457 323.266 198.453Z" fill="white"/>
<path d="M327.12 202.213C326.81 203.369 321.001 210.757 315.68 210.344C313.951 210.203 314.289 200.709 314.289 200.709L314.157 200.004L312.277 190.105L325.748 182.144C325.748 182.144 327.195 201.714 327.12 202.213Z" fill="#7F4F35"/>
<path d="M312.221 190.115L314.101 199.994L314.232 200.709C314.232 200.709 314.176 202.429 314.232 204.412C321.536 203.566 325.033 198.208 326.603 194.495C326.199 188.855 325.663 182.144 325.663 182.144L312.221 190.115Z" fill="#263238"/>
<path d="M294.596 173.759C288.495 194.439 300.236 200.446 304.663 201.752C308.714 202.946 322.664 206.452 330.87 186.524C339.077 166.596 331.378 157.196 322.251 153.991C313.123 150.786 300.687 153.07 294.596 173.759Z" fill="#7F4F35"/>
<path d="M297.595 173.176C298.092 173.209 298.592 173.209 299.089 173.176C299.613 173.253 300.147 173.157 300.612 172.904C300.748 172.794 300.842 172.64 300.878 172.469C300.914 172.298 300.89 172.119 300.81 171.964C300.622 171.68 300.362 171.453 300.056 171.305C299.749 171.158 299.409 171.096 299.071 171.127C298.378 171.071 297.689 171.279 297.144 171.71C297.011 171.811 296.912 171.951 296.861 172.11C296.81 172.269 296.809 172.44 296.858 172.6C296.908 172.76 297.005 172.901 297.136 173.004C297.268 173.107 297.428 173.167 297.595 173.176Z" fill="#263238"/>
<path d="M311.76 177.011C311.298 176.829 310.846 176.622 310.406 176.391C309.896 176.247 309.449 175.936 309.137 175.507C309.061 175.351 309.039 175.174 309.074 175.003C309.11 174.833 309.202 174.68 309.335 174.567C309.627 174.392 309.962 174.299 310.303 174.299C310.644 174.299 310.979 174.392 311.271 174.567C311.918 174.817 312.45 175.295 312.766 175.912C312.828 176.056 312.847 176.215 312.821 176.371C312.794 176.526 312.724 176.67 312.618 176.786C312.512 176.902 312.374 176.985 312.222 177.025C312.07 177.065 311.909 177.06 311.76 177.011Z" fill="#263238"/>
<path d="M305.838 191.76C305.434 192.051 305.021 192.465 304.485 192.418C303.946 192.327 303.433 192.122 302.981 191.816C302.934 191.816 302.887 191.816 302.906 191.873C303.068 192.191 303.314 192.46 303.617 192.65C303.92 192.84 304.268 192.945 304.626 192.954C304.934 192.924 305.226 192.804 305.465 192.608C305.704 192.412 305.88 192.15 305.97 191.854C305.998 191.76 305.895 191.76 305.838 191.76Z" fill="#263238"/>
<path d="M300.96 185.302C300.96 185.302 300.198 187.379 300.02 188.394C300.02 188.488 300.227 188.592 300.565 188.686H300.612C301.447 189.029 302.359 189.137 303.251 188.998C304.143 188.859 304.979 188.478 305.669 187.896C305.68 187.888 305.69 187.878 305.697 187.866C305.704 187.855 305.709 187.842 305.711 187.828C305.713 187.815 305.713 187.801 305.71 187.788C305.706 187.774 305.701 187.762 305.693 187.751C305.685 187.739 305.675 187.73 305.663 187.723C305.651 187.716 305.638 187.711 305.625 187.709C305.611 187.706 305.597 187.707 305.584 187.71C305.571 187.713 305.558 187.719 305.547 187.727C304.055 188.335 302.405 188.441 300.847 188.028C300.847 187.736 302.276 184.475 302.107 184.465C301.411 184.465 300.161 184.465 299.7 184.465C300.161 183.102 301.665 179.295 302.52 176.814C302.577 176.654 302.342 176.55 302.276 176.691C300.832 179.423 299.576 182.25 298.516 185.151C298.394 185.368 300.518 185.387 300.96 185.302Z" fill="#263238"/>
<path d="M310.2 181.26C310.274 181.419 310.372 181.565 310.492 181.692C310.582 181.798 310.694 181.882 310.821 181.939C310.948 181.996 311.086 182.024 311.225 182.021C312.09 182.021 312.55 181.175 312.691 180.301C312.691 180.245 312.691 180.198 312.635 180.245C312.231 180.649 311.77 181.063 311.281 180.931C310.95 180.787 310.671 180.544 310.482 180.235C310.429 180.587 310.335 180.931 310.2 181.26Z" fill="#263238"/>
<path d="M310.67 181.081C310.662 180.677 310.549 180.282 310.341 179.935C310.218 179.752 310.058 179.597 309.872 179.479C309.686 179.36 309.478 179.282 309.26 179.248C309.036 179.216 308.807 179.237 308.593 179.31C308.379 179.384 308.185 179.508 308.029 179.671C307.755 179.954 307.555 180.299 307.446 180.677C307.373 180.903 307.322 181.136 307.296 181.373C307.213 181.856 307.245 182.352 307.39 182.82C307.426 182.466 307.499 182.117 307.606 181.777C307.696 181.47 307.812 181.171 307.954 180.884C308.245 180.301 308.677 179.841 309.166 179.944C309.655 180.047 310.003 180.489 310.106 181.138C310.205 181.813 310.236 182.496 310.2 183.178C310.517 182.525 310.677 181.807 310.67 181.081Z" fill="#263238"/>
<path d="M297.134 178.045C297.009 178.154 296.861 178.234 296.702 178.28C296.577 178.326 296.443 178.345 296.31 178.335C296.177 178.325 296.048 178.288 295.931 178.224C295.198 177.81 295.207 176.852 295.489 176.034C295.489 175.977 295.546 175.949 295.564 176.034C295.715 176.579 295.912 177.162 296.382 177.284C296.73 177.313 297.077 177.234 297.379 177.058C297.264 177.378 297.182 177.709 297.134 178.045Z" fill="#263238"/>
<path d="M296.937 177.661C297.117 177.311 297.39 177.018 297.727 176.815C297.909 176.719 298.109 176.661 298.314 176.645C298.519 176.629 298.725 176.655 298.92 176.721C299.126 176.801 299.309 176.928 299.458 177.091C299.606 177.254 299.715 177.449 299.776 177.661C299.86 178.038 299.86 178.43 299.776 178.807C299.729 179.037 299.666 179.263 299.588 179.484C299.441 179.942 299.187 180.358 298.845 180.697C298.982 180.374 299.08 180.037 299.137 179.691C299.197 179.381 299.234 179.067 299.249 178.751C299.249 178.112 299.108 177.51 298.648 177.369C298.187 177.228 297.708 177.454 297.304 177.971C296.912 178.513 296.576 179.092 296.298 179.7C296.349 178.98 296.568 178.282 296.937 177.661Z" fill="#263238"/>
<path d="M328.897 190.99C327.684 189.973 326.756 188.659 326.202 187.176C325.649 185.694 325.489 184.093 325.739 182.53C322.41 180.002 319.828 176.621 318.266 172.744C318.266 173.224 318.557 176.702 318.736 178.478C305.876 172.838 304.231 161.333 304.231 161.333C298.798 164.839 297.238 167.518 296.27 168.853C296.27 168.853 298.197 160.327 303.79 155.58C310.652 149.771 317.438 152.675 317.438 152.675C320.955 152.583 324.427 153.473 327.465 155.245C330.504 157.016 332.989 159.6 334.64 162.705C341.061 174.474 328.897 190.99 328.897 190.99Z" fill="#263238"/>
<ellipse cx="4.99206" cy="3.80442" rx="4.99206" ry="3.80442" transform="matrix(-0.0555712 0.998455 -0.991185 -0.132488 312.572 164.541)" fill="#263238"/>
<ellipse cx="4.99206" cy="3.80442" rx="4.99206" ry="3.80442" transform="matrix(-0.0555712 0.998455 -0.991185 -0.132488 323.675 183.045)" fill="#263238"/>
<ellipse cx="4.99206" cy="3.80442" rx="4.99206" ry="3.80442" transform="matrix(-0.0555712 0.998455 -0.991185 -0.132488 314.482 168.71)" fill="#263238"/>
<ellipse cx="4.99206" cy="3.80442" rx="4.99206" ry="3.80442" transform="matrix(-0.0555712 0.998455 -0.991185 -0.132488 318.975 173.842)" fill="#263238"/>
<ellipse cx="4.99206" cy="3.80442" rx="4.99206" ry="3.80442" transform="matrix(-0.0555712 0.998455 -0.991185 -0.132488 309.712 158.292)" fill="#263238"/>
<ellipse cx="4.99206" cy="3.80442" rx="4.99206" ry="3.80442" transform="matrix(-0.0555712 0.998455 -0.991185 -0.132488 320.814 176.796)" fill="#263238"/>
<path d="M327.12 187.145C327.12 187.145 333.07 181.505 335.73 183.733C338.39 185.961 332.985 194.853 329.206 195.445C328.726 195.556 328.228 195.569 327.743 195.482C327.258 195.395 326.795 195.211 326.383 194.94C325.971 194.67 325.618 194.318 325.346 193.907C325.073 193.497 324.887 193.035 324.798 192.55L327.12 187.145Z" fill="#7F4F35"/>
<ellipse cx="4.99206" cy="3.80442" rx="4.99206" ry="3.80442" transform="matrix(-0.0555712 0.998455 -0.991185 -0.132488 325.585 187.214)" fill="#263238"/>
<ellipse cx="4.99206" cy="3.80442" rx="4.99206" ry="3.80442" transform="matrix(-0.0555712 0.998455 -0.991185 -0.132488 330.077 192.346)" fill="#263238"/>
<ellipse cx="2.97623" cy="3.80442" rx="2.97623" ry="3.80442" transform="matrix(-0.0555712 0.998455 -0.991185 -0.132488 333.768 197.15)" fill="#263238"/>
<path d="M334.113 186.242C334.17 186.242 334.16 186.327 334.113 186.336C331.444 186.834 329.676 188.855 328.295 191.036C328.487 190.819 328.725 190.646 328.991 190.53C329.257 190.413 329.545 190.356 329.835 190.361C330.125 190.367 330.411 190.435 330.672 190.561C330.934 190.687 331.165 190.868 331.35 191.092C331.406 191.149 331.35 191.243 331.265 191.215C330.859 190.988 330.392 190.892 329.929 190.941C329.466 190.99 329.03 191.181 328.68 191.487C328.105 192.006 327.586 192.582 327.129 193.207C326.969 193.405 326.593 193.207 326.734 192.972V192.916C327.336 189.776 330.673 185.866 334.113 186.242Z" fill="#263238"/>
<path d="M62.3028 406.174C62.0396 409.765 72.2856 410.78 76.572 408.468C77.9256 407.725 81.7702 404.482 86.4514 400.356C96.7256 391.256 110.92 377.946 110.92 377.946L121.448 382.646L171.39 399.726L194.627 343.617C194.627 343.617 169.726 333.089 146.047 323.652C142.41 322.204 138.819 320.832 135.322 319.44L134.673 319.187C118.787 313.077 105.618 308.452 104.274 309.401C100.674 311.967 62.5754 402.565 62.3028 406.174Z" fill="#C47B54"/>
<path d="M62.3032 406.174C62.0306 409.765 72.2954 410.799 76.5724 408.468C77.9354 407.725 81.78 404.473 86.4518 400.355C96.726 391.256 110.967 377.946 110.967 377.946L121.486 382.693L122.886 383.182L147.439 324.225L146.076 323.689C142.448 322.241 138.857 320.869 135.369 319.478C135.144 319.393 134.928 319.309 134.721 319.215C118.816 313.105 105.665 308.489 104.302 309.439C100.674 311.958 62.5758 402.555 62.3032 406.174Z" fill="#04695E"/>
<path d="M84.0359 391.688C83.6064 389.615 82.8038 387.637 81.6671 385.851C82.1559 385.55 82.6071 385.249 83.1147 384.911C83.2557 384.817 83.1147 384.619 82.9737 384.685C82.4473 384.93 81.9397 385.193 81.4415 385.475C80.7209 384.39 79.9062 383.371 79.0069 382.429C78.3336 381.736 77.5972 381.106 76.8073 380.549C76.0083 379.966 75.0965 379.609 74.2693 379.045C74.1847 378.998 74.1189 379.13 74.1941 379.177C74.8857 379.664 75.5168 380.232 76.0741 380.869C76.6475 381.47 77.2209 382.063 77.7473 382.702C78.6507 383.81 79.45 385 80.1349 386.255L79.3735 386.744L78.8095 387.092C78.6071 387.196 78.4229 387.332 78.2643 387.496C78.2079 387.552 78.2643 387.627 78.3395 387.618C78.5591 387.555 78.7682 387.46 78.9599 387.336L79.5427 387.026L80.3417 386.612C80.3608 386.638 80.3766 386.667 80.3887 386.697C82.0132 389.819 82.9189 393.265 83.0395 396.783C83.0395 397.836 83.0395 398.889 83.0395 399.932C82.9377 401.027 82.7459 402.112 82.4661 403.175C82.4661 403.25 82.5601 403.307 82.5977 403.231C84.329 399.645 84.8343 395.59 84.0359 391.688Z" fill="#263238"/>
<path d="M126.637 326.829L126.111 326.359C127.51 324.406 128.624 322.263 129.42 319.995C129.42 319.845 129.241 319.77 129.166 319.892C127.998 321.928 126.635 323.845 125.096 325.617C124.569 325.231 124.024 324.855 123.469 324.517C123.385 324.47 123.319 324.592 123.404 324.648C123.921 325.015 124.419 325.41 124.908 325.814C123.49 327.432 121.873 328.863 120.095 330.072C116.133 332.568 111.499 333.783 106.822 333.55C106.878 332.902 106.954 332.262 107.019 331.614C107.019 331.501 106.85 331.492 106.822 331.614C106.652 332.248 106.539 332.896 106.484 333.55C106.051 333.55 105.609 333.55 105.168 333.494C104.444 333.447 103.711 333.362 102.977 333.268C102.977 333.137 103.043 332.996 103.062 332.864C103.159 332.402 103.228 331.934 103.269 331.463C103.273 331.429 103.265 331.394 103.245 331.365C103.226 331.337 103.196 331.316 103.162 331.308C103.128 331.3 103.093 331.304 103.062 331.321C103.031 331.338 103.008 331.365 102.996 331.398C102.769 331.979 102.596 332.58 102.479 333.193C100.335 332.88 98.2217 332.383 96.1624 331.708C96.0778 331.708 96.0308 331.811 96.106 331.858C98.0421 332.933 100.113 333.746 102.263 334.274C102.094 335.214 101.925 336.088 101.793 337.009C101.746 337.141 101.962 337.197 102.009 337.056C102.272 336.163 102.498 335.27 102.724 334.368C103.194 334.471 103.664 334.584 104.152 334.659C104.904 334.782 105.675 334.866 106.437 334.923C106.443 335.491 106.477 336.059 106.54 336.624C106.54 336.718 106.69 336.718 106.69 336.624C106.69 336.06 106.69 335.496 106.69 334.932C108.663 335.072 110.646 334.999 112.603 334.716C115.311 334.349 117.911 333.417 120.236 331.98C122.251 330.694 124.032 329.073 125.5 327.186C125.631 327.017 125.744 326.839 125.876 326.66L126.383 327.092C126.694 327.365 127.004 327.647 127.323 327.891C127.399 327.948 127.511 327.826 127.455 327.75C127.21 327.42 126.936 327.112 126.637 326.829Z" fill="#263238"/>
<path d="M140.53 324.187C138.866 327.618 137.428 331.171 135.905 334.668C134.383 338.165 132.963 341.558 131.534 345.008C128.633 352.021 125.788 359.052 122.999 366.102C121.429 370.05 119.888 374.007 118.534 378.03C118.534 378.106 118.628 378.153 118.666 378.077C121.965 371.272 124.757 364.222 127.662 357.238C130.566 350.253 133.461 343.297 136.122 336.247C137.644 332.252 139.289 328.286 140.652 324.225C140.709 324.159 140.568 324.103 140.53 324.187Z" fill="#263238"/>
<path d="M255.116 285.29L186.195 284.256C186.195 284.256 171.578 321.48 177.66 332.515C183.742 343.551 247.22 359.39 247.22 359.39L159.894 326.18L130.857 393.051C130.857 393.051 236.955 416.175 293.233 410.441C314.355 408.289 327.609 380.7 315.238 359.503C302.219 337.206 254.994 306.694 254.994 306.694L255.116 285.29Z" fill="#37474F"/>
<path d="M178.093 333.352C204.808 345.572 215.824 349.896 243.385 360.067C247.208 361.477 251.04 362.875 254.881 364.26C258.867 365.688 262.815 367.333 266.895 368.48C267.092 368.527 266.989 368.856 266.801 368.781C263.285 367.465 259.638 366.525 256.075 365.359C252.513 364.194 249.1 363.056 245.632 361.844C244.137 361.327 242.643 360.782 241.148 360.255L242.088 360.876C243.46 361.816 244.833 362.756 246.186 363.696C249.006 365.66 251.563 367.982 254.496 369.73C254.675 369.834 254.496 370.125 254.327 370.003C251.507 368.029 248.405 366.553 245.547 364.683C244.165 363.743 242.812 362.803 241.458 361.863C240.172 361.035 238.956 360.105 237.82 359.08C233.431 357.51 229.05 355.912 224.66 354.249C210.936 349.013 185.039 337.761 177.726 334.039C177.388 333.841 177.66 333.174 178.093 333.352Z" fill="#263238"/>
<path d="M154.085 362.229C158.541 352.537 163.485 343.062 167.978 333.418C168.063 333.23 168.364 333.333 168.279 333.521C163.993 343.25 160.035 353.111 155.589 362.765C151.143 372.418 146.293 381.95 141.611 391.538C141.499 391.782 141.094 391.651 141.207 391.388C145.522 381.64 149.639 371.892 154.085 362.229Z" fill="#263238"/>
<path d="M256.244 307.427C263.824 311.733 271.095 316.561 278.005 321.875C284.924 326.998 291.617 332.412 297.999 338.184C301.223 341.098 304.335 344.144 307.333 347.274C310.253 350.223 312.905 353.425 315.258 356.843C319.447 363.026 321.458 370.428 320.973 377.88C320.706 381.838 319.781 385.723 318.237 389.376C316.578 392.941 314.43 396.256 311.855 399.228C311.761 399.35 311.582 399.171 311.686 399.049C314.098 396.312 315.931 393.114 317.072 389.649C318.899 384.708 319.605 379.423 319.14 374.175C318.675 368.928 317.05 363.849 314.383 359.306C310.153 352.284 303.931 346.465 298.018 340.872C291.91 335.112 285.513 329.665 278.851 324.554C275.091 321.678 271.331 318.914 267.477 316.141C263.623 313.368 259.732 310.755 255.981 307.878C255.921 307.843 255.878 307.786 255.86 307.719C255.843 307.652 255.852 307.581 255.887 307.521C255.922 307.461 255.979 307.418 256.046 307.4C256.113 307.383 256.185 307.392 256.244 307.427Z" fill="#263238"/>
<path d="M240.452 310.2C244.485 308.245 248.912 307.484 253.114 306.835C257.315 306.199 261.555 305.847 265.804 305.782C265.917 305.782 265.907 306.008 265.804 306.027C261.499 306.553 257.203 307.305 252.935 308.198C248.668 309.091 244.663 310.304 240.499 310.764C240.255 310.792 240.255 310.304 240.452 310.2Z" fill="#263238"/>
<path d="M189.344 311.018C193.022 310.925 196.689 310.592 200.324 310.021C203.332 309.589 206.424 309.147 208.934 307.267C213.813 303.601 215.805 297.153 216.839 291.4C216.839 291.259 217.103 291.296 217.084 291.4C216.247 297.66 215.965 304.851 210.504 309.053C207.778 311.14 204.497 311.77 201.104 311.976C197.166 312.135 193.223 311.892 189.335 311.253C189.316 311.239 189.301 311.221 189.291 311.2C189.28 311.179 189.276 311.156 189.276 311.133C189.277 311.109 189.284 311.087 189.296 311.067C189.308 311.046 189.324 311.03 189.344 311.018Z" fill="#263238"/>
<path d="M181.759 320.944C182.14 317.32 182.787 313.729 183.695 310.2C184.56 306.562 185.575 302.971 186.741 299.418C188.047 295.376 189.561 291.409 191.149 287.48C191.215 287.339 191.441 287.405 191.384 287.555C189.109 294.201 187.041 300.941 185.302 307.756C184.444 311.14 183.676 314.54 182.999 317.955C182.341 321.292 182.003 324.648 182.943 327.966C183.892 331.313 185.812 334.303 188.461 336.558C188.461 336.558 188.461 336.623 188.461 336.558C186.145 334.708 184.322 332.315 183.153 329.591C181.984 326.867 181.505 323.897 181.759 320.944Z" fill="#263238"/>
<path d="M169.971 341.389C174.671 342.601 179.174 344.209 183.751 345.685C188.329 347.16 192.898 348.655 197.466 350.178C206.603 353.214 215.702 356.372 224.801 359.512C229.962 361.298 235.094 363.206 240.227 365.077C240.377 365.133 240.311 365.359 240.161 365.312C221.774 359.603 203.504 353.546 185.349 347.142C180.189 345.327 174.962 343.654 169.924 341.549C169.912 341.547 169.9 341.543 169.889 341.537C169.879 341.53 169.87 341.522 169.863 341.511C169.856 341.501 169.851 341.489 169.85 341.477C169.848 341.465 169.849 341.452 169.852 341.441C169.856 341.429 169.862 341.418 169.87 341.409C169.878 341.399 169.888 341.392 169.899 341.387C169.911 341.382 169.923 341.38 169.935 341.38C169.948 341.38 169.96 341.383 169.971 341.389Z" fill="#263238"/>
<path d="M271.556 263.905L272.196 301.241C272.196 301.241 200.22 294.013 180.311 291.776C180.311 291.776 206.95 223.814 229.379 201.404C240.602 190.199 253.17 191.59 260.859 200.079C262.805 202.222 278.287 229.82 280.336 242.172C282.113 253.066 271.556 263.905 271.556 263.905Z" fill="#04695E"/>
<path opacity="0.1" d="M259.553 198.763L236.137 196.206C237.441 195.46 238.817 194.849 240.245 194.383L256.084 196.103C257.331 196.865 258.493 197.757 259.553 198.763ZM262.852 203.115L231.24 199.666C230.61 200.201 229.99 200.784 229.36 201.405L229.059 201.715L264.262 205.55C263.755 204.648 263.285 203.83 262.852 203.115ZM266.612 209.799L225.76 205.343C225.177 206.011 224.613 206.706 224.03 207.43L267.919 212.215C267.505 211.387 267.063 210.56 266.64 209.799H266.612ZM270.09 216.445L221.21 211.115C220.703 211.801 220.204 212.506 219.697 213.23L271.265 218.87C270.936 218.08 270.532 217.234 270.118 216.445H270.09ZM273.333 223.025L217.234 216.905C216.764 217.61 216.294 218.315 215.852 219.039L274.433 225.431C274.104 224.66 273.728 223.861 273.361 223.062L273.333 223.025ZM276.257 229.605L213.549 222.78C213.117 223.485 212.694 224.2 212.271 224.914L277.244 232.002C276.933 231.24 276.614 230.469 276.285 229.661L276.257 229.605ZM278.729 236.185L210.043 228.665L208.83 230.817L279.462 238.516C279.274 237.789 279.039 237.015 278.757 236.194L278.729 236.185ZM280.383 242.633L206.8 234.615L205.644 236.777L280.543 244.945C280.555 244.176 280.511 243.406 280.411 242.642L280.383 242.633ZM203.604 240.537L202.485 242.699L279.396 251.084C279.638 250.355 279.842 249.615 280.007 248.865L203.604 240.537ZM200.577 246.468C200.211 247.192 199.844 247.916 199.496 248.64L276.623 257.043C277.027 256.366 277.422 255.643 277.798 254.891L200.577 246.468ZM197.635 252.428L196.592 254.59L272.459 262.862C272.91 262.335 273.484 261.63 274.132 260.775L197.635 252.428ZM271.575 266.763L194.787 258.387C194.448 259.121 194.11 259.844 193.772 260.559L271.613 269.019L271.575 266.763ZM271.688 273.042L192.023 264.356C191.685 265.09 191.356 265.813 191.036 266.528L271.726 275.326L271.688 273.042ZM271.792 279.321L189.335 270.325L188.395 272.506L271.848 281.605L271.792 279.321ZM271.904 285.6L186.74 276.36C186.421 277.112 186.101 277.836 185.8 278.541L271.97 287.941L271.904 285.6ZM272.008 291.889L184.155 282.31L183.215 284.482L272.074 294.22L272.008 291.889ZM272.111 298.168L181.702 288.317C181.335 289.21 181.044 289.943 180.818 290.507L272.186 300.462L272.111 298.168Z" fill="black"/>
<path d="M244.541 256.931C248.422 256.746 252.312 256.843 256.178 257.222C258.058 257.438 259.995 257.749 261.894 258.087C262.834 258.266 263.774 258.407 264.714 258.538C265.706 258.71 266.717 258.761 267.722 258.689C267.806 258.689 267.825 258.811 267.722 258.82C266.79 258.997 265.848 259.111 264.902 259.159C263.982 259.18 263.061 259.136 262.147 259.027C260.192 258.83 258.256 258.538 256.31 258.313C252.39 257.861 248.461 257.42 244.513 257.26C244.4 257.25 244.4 256.94 244.541 256.931Z" fill="#263238"/>
<path d="M235.546 261.64C238.644 260.876 241.782 260.283 244.946 259.864C246.544 259.666 248.132 259.553 249.73 259.488C250.501 259.488 251.262 259.441 252.033 259.431C252.804 259.422 253.716 259.525 254.562 259.506C254.646 259.506 254.665 259.638 254.562 259.638C253.772 259.685 252.983 259.864 252.193 259.948L249.815 260.221C248.226 260.399 246.638 260.597 245.049 260.766C241.862 261.095 238.704 261.462 235.536 261.903C235.405 261.932 235.386 261.687 235.546 261.64Z" fill="#263238"/>
<path d="M246.59 197.852C246.505 199.497 250.952 211.604 258.077 213.315C260.399 213.869 263.98 201.33 263.98 201.33L264.459 200.465L271.105 188.348L258.725 174.173L256.892 172.293C256.892 172.293 255.294 175.724 253.349 180.02L253.067 180.631C252.954 180.875 252.832 181.101 252.738 181.326C252.437 181.966 252.136 182.624 251.845 183.282C251.628 183.78 251.403 184.222 251.196 184.795C250.989 185.368 250.754 185.838 250.529 186.365C248.959 190.101 247.643 193.938 246.59 197.852Z" fill="#C47B54"/>
<path d="M253.349 179.973C253.599 183.991 254.722 187.906 256.641 191.446C258.56 194.985 261.228 198.063 264.459 200.465L271.105 188.348L258.725 174.173L256.892 172.293C256.892 172.293 255.294 175.677 253.349 179.973Z" fill="#263238"/>
<path d="M295.659 170.394C295.151 194.637 280.562 197.071 275.336 196.958C270.589 196.855 254.44 195.896 252.437 171.719C250.435 147.543 261.837 140.117 272.751 139.759C283.664 139.402 296.166 146.142 295.659 170.394Z" fill="#C47B54"/>
<path d="M291.795 166.624C291.251 166.487 290.714 166.32 290.188 166.126C289.603 166.03 289.065 165.746 288.656 165.318C288.553 165.156 288.506 164.966 288.523 164.775C288.54 164.585 288.62 164.405 288.75 164.265C289.048 164.027 289.405 163.872 289.784 163.818C290.162 163.763 290.548 163.811 290.902 163.955C291.666 164.138 292.335 164.597 292.782 165.242C292.868 165.398 292.909 165.575 292.899 165.752C292.889 165.93 292.829 166.101 292.725 166.245C292.622 166.39 292.48 166.502 292.315 166.569C292.15 166.636 291.97 166.655 291.795 166.624Z" fill="#263238"/>
<path d="M276.069 165.647C276.627 165.609 277.182 165.544 277.733 165.449C278.327 165.461 278.909 165.276 279.387 164.923C279.518 164.785 279.598 164.607 279.615 164.418C279.632 164.228 279.585 164.039 279.481 163.88C279.233 163.591 278.912 163.374 278.552 163.251C278.191 163.129 277.805 163.106 277.432 163.184C276.65 163.231 275.913 163.566 275.364 164.124C275.256 164.26 275.188 164.424 275.168 164.597C275.147 164.77 275.175 164.945 275.248 165.102C275.321 165.26 275.437 165.395 275.582 165.491C275.726 165.587 275.895 165.641 276.069 165.647Z" fill="#263238"/>
<path d="M277.149 184.682C277.478 185.124 277.788 185.716 278.381 185.857C278.989 185.932 279.606 185.884 280.195 185.716C280.207 185.712 280.22 185.713 280.232 185.717C280.243 185.722 280.253 185.73 280.26 185.741C280.266 185.752 280.269 185.764 280.268 185.777C280.266 185.789 280.26 185.801 280.251 185.81C279.967 186.092 279.612 186.294 279.224 186.393C278.835 186.492 278.427 186.486 278.042 186.374C277.724 186.236 277.454 186.007 277.265 185.716C277.076 185.425 276.977 185.085 276.98 184.738C276.971 184.635 277.102 184.616 277.149 184.682Z" fill="#263238"/>
<path d="M284.594 179.4C284.594 179.4 284.698 181.881 284.594 183.047C284.594 183.15 284.303 183.178 283.908 183.16C282.897 183.245 281.881 183.051 280.973 182.598C280.064 182.146 279.298 181.452 278.757 180.593C278.682 180.471 278.841 180.368 278.945 180.452C280.332 181.585 282.045 182.244 283.833 182.332C283.946 182.013 283.504 178.074 283.692 178.084C284.585 178.246 285.452 178.531 286.267 178.93C286.202 173.741 285.327 168.59 285.327 163.429C285.336 163.394 285.356 163.364 285.384 163.342C285.412 163.32 285.447 163.308 285.482 163.308C285.518 163.308 285.553 163.32 285.581 163.342C285.609 163.364 285.629 163.394 285.638 163.429C286.963 168.74 287.179 174.709 287.386 180.067C287.339 180.734 285.036 179.635 284.594 179.4Z" fill="#263238"/>
<path d="M283.777 182.708C283.017 183.583 282.047 184.25 280.957 184.645C280.346 184.843 279.688 184.843 279.077 184.645C277.761 184.212 277.808 182.981 278.137 181.947C278.309 181.399 278.542 180.872 278.832 180.377C280.189 181.663 281.922 182.48 283.777 182.708Z" fill="#263238"/>
<path d="M280.937 184.644C280.326 184.843 279.668 184.843 279.057 184.644C277.741 184.212 277.788 182.98 278.117 181.946C278.822 182.013 279.484 182.316 279.996 182.806C280.507 183.295 280.839 183.943 280.937 184.644Z" fill="#FF99BA"/>
<path d="M275.646 172.067C275.515 172.208 275.359 172.323 275.185 172.406C275.05 172.482 274.9 172.527 274.745 172.536C274.59 172.546 274.436 172.521 274.292 172.462C273.399 172.133 273.249 171.071 273.427 170.112C273.427 170.046 273.484 170.009 273.512 170.112C273.775 170.685 274.095 171.296 274.659 171.353C275.056 171.33 275.437 171.185 275.749 170.939C275.676 171.311 275.641 171.689 275.646 172.067Z" fill="#263238"/>
<path d="M275.232 171.701C275.394 171.284 275.663 170.918 276.012 170.639C276.211 170.495 276.437 170.395 276.676 170.343C276.916 170.291 277.163 170.289 277.403 170.338C277.652 170.393 277.883 170.507 278.078 170.671C278.273 170.834 278.425 171.043 278.522 171.278C278.692 171.681 278.766 172.119 278.738 172.556C278.723 172.815 278.688 173.073 278.635 173.327C278.528 173.864 278.3 174.368 277.967 174.803C278.072 174.423 278.132 174.031 278.146 173.637C278.179 173.284 278.179 172.928 278.146 172.575C278.08 171.861 277.798 171.212 277.253 171.127C276.708 171.043 276.172 171.372 275.805 172.002C275.443 172.663 275.147 173.359 274.922 174.079C274.839 173.273 274.945 172.459 275.232 171.701Z" fill="#263238"/>
<path d="M291.052 173.233C291.152 173.397 291.283 173.541 291.437 173.656C291.552 173.758 291.689 173.833 291.837 173.876C291.985 173.918 292.141 173.926 292.293 173.9C293.233 173.759 293.599 172.754 293.618 171.776C293.618 171.71 293.618 171.663 293.543 171.719C293.167 172.227 292.725 172.763 292.17 172.659C291.785 172.555 291.44 172.336 291.183 172.03C291.186 172.434 291.142 172.838 291.052 173.233Z" fill="#263238"/>
<path d="M291.4 172.875C291.331 172.435 291.15 172.021 290.873 171.672C290.71 171.488 290.511 171.339 290.287 171.236C290.064 171.132 289.822 171.076 289.576 171.07C289.326 171.071 289.079 171.129 288.855 171.242C288.632 171.355 288.437 171.518 288.288 171.719C288.035 172.078 287.865 172.489 287.79 172.922C287.752 173.18 287.733 173.441 287.734 173.702C287.714 174.248 287.827 174.789 288.063 175.282C288.045 174.888 288.07 174.494 288.138 174.107C288.193 173.756 288.274 173.41 288.382 173.073C288.617 172.386 289.031 171.813 289.576 171.86C290.121 171.907 290.582 172.33 290.798 173.026C291.004 173.75 291.139 174.493 291.202 175.244C291.457 174.482 291.525 173.669 291.4 172.875Z" fill="#263238"/>
<path d="M252.86 171.795C256.808 172.603 258.763 164.369 258.763 164.369C258.763 164.369 266.847 165.394 270.983 154.095C270.321 157.553 268.661 160.743 266.208 163.269C266.208 163.269 280.665 163.532 288.157 152.346C288.157 152.346 284.999 158.127 282.517 160.007C282.517 160.007 288.702 159.067 292.227 154.593C292.227 154.593 293.872 161.793 295.555 163.937C295.555 163.937 298.074 138.904 274.621 138.669C274.621 138.669 260.023 137.833 253.386 148.643C246.75 159.453 252.86 171.795 252.86 171.795Z" fill="#263238"/>
<path d="M257.861 173.252C257.861 173.252 253.406 165.159 249.787 166.672C246.168 168.185 248.95 179.541 252.804 181.421C253.28 181.701 253.808 181.883 254.356 181.954C254.904 182.026 255.461 181.986 255.993 181.836C256.525 181.687 257.022 181.432 257.453 181.086C257.883 180.74 258.24 180.31 258.5 179.823L257.861 173.252Z" fill="#C47B54"/>
<path d="M250.67 169.896C250.66 169.9 250.651 169.907 250.645 169.916C250.639 169.925 250.636 169.936 250.636 169.947C250.636 169.958 250.639 169.969 250.645 169.978C250.651 169.987 250.66 169.995 250.67 169.999C253.358 171.447 254.561 174.21 255.304 177.03C254.58 175.893 253.508 175.207 252.004 176.043C251.92 176.09 252.004 176.212 252.061 176.203C252.574 176.097 253.108 176.153 253.587 176.364C254.067 176.574 254.47 176.929 254.74 177.378C255.185 178.129 255.548 178.927 255.821 179.756C255.924 180.019 256.394 179.935 256.328 179.634C256.328 179.634 256.328 179.634 256.328 179.568C256.723 175.987 254.477 170.676 250.67 169.896Z" fill="#263238"/>
<path d="M292.866 185.105C293.369 183.927 293.769 182.706 294.06 181.458C294.372 180.218 294.62 178.963 294.803 177.698C295.038 176.439 295.15 175.16 295.291 173.882C295.432 172.603 295.498 171.325 295.602 170.037C295.602 170.686 295.658 171.325 295.686 171.974V173.91C295.627 175.2 295.501 176.486 295.31 177.764C295.101 179.034 294.812 180.29 294.445 181.524C294.076 182.781 293.546 183.985 292.866 185.105Z" fill="#263238"/>
<path d="M245.443 209.291C249.917 216.378 279.443 268.323 280.937 271.547C280.937 271.547 275.297 309.147 257.315 300.461C245.622 294.821 231.193 233.185 231.061 210.475C231.005 200.05 236.052 194.41 245.443 209.291Z" fill="#C47B54"/>
<path d="M236.024 253.951L264.92 240.076C264.92 240.076 253.64 218.71 244.588 207.176C235.535 195.642 226.981 195.887 229.36 217.14C230.707 229.553 232.934 241.854 236.024 253.951Z" fill="#04695E"/>
<path opacity="0.1" d="M258.876 229.219L233.232 241.824C233.402 242.623 233.552 243.394 233.712 244.118L260.032 231.183C259.646 230.554 259.27 229.896 258.876 229.219ZM261.959 234.652L234.586 248.16C234.783 248.996 234.962 249.748 235.112 250.416L263.049 236.682C262.73 236.034 262.363 235.376 261.959 234.652Z" fill="black"/>
<path d="M260.709 235C256.705 236.774 252.744 238.654 248.828 240.64C246.948 241.58 244.955 242.567 243.047 243.582C241.138 244.598 239.174 245.801 237.19 246.844C237.049 246.919 237.143 247.145 237.294 247.07C239.24 246.13 241.242 245.331 243.197 244.41C245.152 243.488 247.173 242.417 249.166 241.42C253.089 239.44 256.962 237.363 260.784 235.188C260.897 235.122 260.831 234.944 260.709 235Z" fill="#263238"/>
<path d="M263.745 240.64C264.112 240.414 264.488 240.179 264.873 239.963L264.817 240.132C263.623 238.393 262.542 236.589 261.424 234.803C260.305 233.017 259.29 231.174 258.275 229.341C257.259 227.508 256.244 225.656 255.314 223.767C254.383 221.878 253.434 220.007 252.606 218.052C253.828 219.772 254.956 221.549 256.056 223.344C257.156 225.139 258.218 226.954 259.262 228.777C260.305 230.601 261.292 232.462 262.27 234.333C263.247 236.203 264.15 238.093 265.033 239.973L265.09 240.104H264.977C264.573 240.349 264.14 240.49 263.745 240.64Z" fill="#263238"/>
<path d="M256.018 219.753C256.462 220.733 256.778 221.766 256.958 222.827C257.156 223.883 257.213 224.961 257.127 226.032C256.684 225.052 256.368 224.019 256.187 222.958C255.989 221.902 255.932 220.824 256.018 219.753Z" fill="#263238"/>
<path d="M237.726 253.011C237.152 253.114 236.598 253.321 236.024 253.434C235.658 251.431 235.084 249.429 234.671 247.446C234.257 245.462 233.731 243.216 233.289 241.092C232.433 236.89 231.775 232.632 230.976 228.439C230.535 226.061 230.13 223.683 229.745 221.295C229.745 221.182 229.529 221.211 229.529 221.295C229.685 223.595 229.902 225.895 230.177 228.195L229.98 227.649C229.651 226.709 229.331 225.817 229.04 224.886C229.04 224.83 228.937 224.886 228.946 224.886C229.111 225.88 229.382 226.854 229.754 227.791C229.905 228.176 230.083 228.552 230.262 228.928C230.478 230.629 230.713 232.331 231.005 234.032C231.71 238.262 232.574 242.492 233.571 246.638C234.093 249.05 234.749 251.432 235.535 253.772C235.549 253.812 235.572 253.848 235.601 253.878C235.63 253.909 235.666 253.932 235.705 253.947C235.745 253.963 235.787 253.969 235.829 253.966C235.871 253.964 235.912 253.952 235.949 253.932C236.532 253.594 237.19 253.396 237.782 253.086C237.876 253.105 237.82 252.992 237.726 253.011Z" fill="#263238"/>
<path d="M209.705 265.72C197.578 255.84 186.506 244.733 176.664 232.575C192.583 223.913 207.211 213.063 220.12 200.343C230.295 210.438 241.56 219.373 253.706 226.982C240.809 241.776 226.014 254.801 209.705 265.72Z" fill="white"/>
<path d="M209.704 265.719C197.529 255.874 186.409 244.792 176.522 232.65L176.419 232.528L176.56 232.443C192.463 223.786 207.072 212.939 219.96 200.22L220.129 200.051L220.298 200.22C230.448 210.304 241.683 219.232 253.8 226.841L253.95 226.935L253.837 227.076C240.896 241.848 226.056 254.842 209.704 265.719ZM209.704 265.719C225.967 254.762 240.711 241.705 253.555 226.888V227.113C241.405 219.515 230.137 210.59 219.96 200.502H220.298C207.367 213.215 192.717 224.052 176.776 232.697V232.49C186.575 244.675 197.61 255.81 209.704 265.719Z" fill="#263238"/>
<path d="M217.338 246.891C216.952 245.547 215.458 244.814 213.85 244.805C212.62 244.811 211.398 244.998 210.222 245.359C210.468 244.519 210.503 243.631 210.325 242.774C210.034 241.468 209.103 239.888 207.223 239.954C206.421 240.038 205.651 240.315 204.98 240.762C204.309 241.209 203.756 241.813 203.369 242.52C202.614 243.92 202.315 245.52 202.514 247.098C202.655 248.978 203.125 250.858 202.928 252.738C202.928 252.954 203.163 253.189 203.454 253.189C205.545 253.161 207.629 252.931 209.677 252.503C211.651 252.181 213.558 251.53 215.317 250.576C216.746 249.749 217.751 248.348 217.338 246.891ZM209.884 251.591C207.966 252.025 206.011 252.273 204.046 252.334C204.15 249.166 202.505 245.651 204.413 242.727C205.287 241.392 207.75 239.719 208.915 241.844C209.235 242.457 209.407 243.138 209.416 243.83C209.426 244.522 209.274 245.206 208.972 245.829C208.644 245.981 208.329 246.16 208.032 246.365C207.524 246.732 208.257 247.361 208.765 246.995C208.824 246.952 208.887 246.914 208.953 246.882C209.062 246.952 209.195 246.977 209.322 246.953C209.45 246.928 209.563 246.856 209.639 246.75C209.686 246.647 209.724 246.553 209.771 246.459C210.378 246.217 211.007 246.037 211.651 245.923C212.505 245.715 213.385 245.623 214.264 245.651C216.623 245.829 216.858 247.963 215.589 249.232C214.32 250.501 211.876 251.159 209.884 251.61V251.591Z" fill="#04695E"/>
<path d="M201.16 241.261C201.143 240.938 201.06 240.623 200.916 240.333C200.772 240.044 200.571 239.787 200.324 239.578C199.605 238.837 198.713 238.285 197.729 237.971C198.087 237.632 198.345 237.201 198.476 236.726C198.607 236.25 198.606 235.748 198.472 235.273C198.208 234.593 197.742 234.009 197.137 233.6C196.832 233.443 196.498 233.35 196.156 233.324C195.814 233.298 195.47 233.341 195.144 233.45C191.497 234.39 192.409 238.45 190.012 240.349C189.963 240.38 189.921 240.422 189.89 240.471C189.859 240.521 189.84 240.576 189.833 240.634C189.827 240.692 189.834 240.751 189.853 240.805C189.873 240.86 189.905 240.91 189.946 240.951C190.252 241.225 190.62 241.422 191.018 241.524L192.484 242.032C193.34 242.323 194.195 242.615 195.079 242.85C196.661 243.371 198.373 243.345 199.938 242.774C200.261 242.658 200.545 242.455 200.76 242.188C200.976 241.921 201.114 241.601 201.16 241.261ZM198.547 242.286C197.279 242.436 195.993 242.295 194.787 241.872C194.129 241.675 193.481 241.449 192.832 241.233L191.817 240.885C191.572 240.816 191.33 240.735 191.093 240.641C191.785 239.896 192.302 239.007 192.606 238.037C192.877 236.829 193.487 235.724 194.364 234.85C194.84 234.442 195.439 234.204 196.066 234.173C196.733 234.173 197.175 234.86 197.41 235.311C197.889 236.251 197.259 237.087 196.601 237.802C196.318 237.794 196.034 237.819 195.755 237.877C195.7 237.889 195.647 237.913 195.601 237.945C195.554 237.978 195.514 238.019 195.484 238.067C195.453 238.115 195.433 238.169 195.423 238.225C195.413 238.281 195.414 238.339 195.426 238.394C195.439 238.45 195.462 238.502 195.495 238.549C195.527 238.595 195.569 238.635 195.617 238.666C195.665 238.696 195.718 238.717 195.774 238.727C195.831 238.737 195.888 238.735 195.943 238.723C196.098 238.691 196.256 238.672 196.413 238.667C196.51 238.72 196.618 238.748 196.728 238.748C196.839 238.748 196.947 238.72 197.043 238.667C198.007 238.878 198.883 239.38 199.553 240.105C199.891 240.443 200.23 240.894 200.089 241.346C199.948 241.797 199.205 242.192 198.585 242.286H198.547Z" fill="#04695E"/>
<path d="M331.397 220.412C324.3 232.97 309.203 255.84 302.445 257.532C288.824 260.935 266.772 250.586 260.981 247.117C258.274 245.5 264.911 223.617 268.266 224.04C271.923 224.501 295.921 234.606 298.544 233.158C300.753 231.936 312.644 221.277 321.94 213.287C333.7 203.21 337.403 209.78 331.397 220.412Z" fill="#7F4F35"/>
<path d="M275.561 226.728C275.561 226.728 268.52 219.932 263.708 215.702C261.019 213.343 256.056 209.714 253.292 208.887C249.156 207.646 231.061 205.127 230.347 209.461C229.698 213.427 245.528 213.644 245.528 213.644C245.528 213.644 229.548 212.008 229.68 216.924C229.811 221.84 247.69 219.697 247.69 219.697C247.69 219.697 231.268 218.391 232.171 223.457C232.847 227.274 249.185 226.277 249.185 226.277C249.185 226.277 235.085 225.243 235.592 229.201C236.175 233.562 251.309 233.572 251.309 233.572C254.355 243.395 259.825 246.826 264.008 248.8C265.014 249.241 275.561 226.728 275.561 226.728Z" fill="#7F4F35"/>
<path d="M250.322 213.803C238.666 211.698 232.302 214.245 232.462 214.207C236.777 213.418 243.516 213.653 245.406 213.747C247.295 213.841 248.414 213.747 250.294 213.869C250.369 213.869 250.36 213.803 250.322 213.803Z" fill="#263238"/>
<path d="M250.867 220.655C246.19 219.593 241.361 219.373 236.607 220.007C236.429 220.007 236.485 220.11 236.673 220.11C239.07 220.167 248.48 220.552 250.867 220.712C250.905 220.721 250.905 220.665 250.867 220.655Z" fill="#263238"/>
<path d="M251.732 226.54C248.079 225.787 244.317 225.724 240.64 226.352C240.462 226.352 240.556 226.483 240.744 226.483C244.419 226.483 247.324 226.436 251.676 226.662C251.789 226.662 251.807 226.54 251.732 226.54Z" fill="#263238"/>
<path d="M306.656 226.54C304.475 228.504 302.275 230.45 299.944 232.246C299.653 232.471 299.352 232.687 299.051 232.894C298.748 233.127 298.399 233.294 298.027 233.383C297.287 233.382 296.549 233.3 295.827 233.139C294.379 232.847 293.007 232.462 291.55 232.048C288.73 231.23 285.91 230.3 283.156 229.341C280.402 228.382 277.61 227.395 274.865 226.342H274.818C271.171 222.742 267.411 219.245 263.482 215.955C261.533 214.302 259.497 212.755 257.381 211.321C256.336 210.608 255.225 209.998 254.063 209.498C253.477 209.273 252.873 209.1 252.258 208.981C251.638 208.84 251.017 208.717 250.378 208.605C247.861 208.16 245.323 207.846 242.773 207.665C240.238 207.434 237.686 207.434 235.15 207.665C233.919 207.747 232.716 208.066 231.606 208.605C231.367 208.719 231.158 208.887 230.995 209.095C230.832 209.304 230.719 209.548 230.666 209.808C230.619 210.24 231.024 210.673 231.522 210.983C232.61 211.58 233.783 212.008 235 212.252C236.217 212.603 237.454 212.885 238.703 213.098V213.643C237.045 213.676 235.394 213.881 233.778 214.254C232.991 214.433 232.23 214.711 231.512 215.081C231.179 215.227 230.88 215.444 230.639 215.717C230.397 215.99 230.217 216.312 230.112 216.66C230.048 216.999 230.09 217.348 230.233 217.662C230.376 217.975 230.613 218.236 230.911 218.409C231.577 218.83 232.317 219.12 233.092 219.264C234.715 219.646 236.378 219.832 238.045 219.819V220.185C236.593 220.401 235.196 220.892 233.928 221.633C233.348 221.91 232.894 222.397 232.659 222.996C232.574 223.252 232.574 223.529 232.659 223.786C232.786 224.046 232.985 224.265 233.232 224.415C234.5 225.123 235.897 225.568 237.34 225.722C238.836 225.974 240.346 226.128 241.862 226.183L241.758 226.483C240.763 226.547 239.78 226.74 238.835 227.057C237.9 227.275 237.036 227.728 236.325 228.373C235.705 228.956 236.006 229.773 236.767 230.347C237.549 230.918 238.419 231.36 239.342 231.653C241.25 232.281 243.22 232.697 245.217 232.894C247.224 233.117 249.244 233.198 251.262 233.139H251.562L251.656 233.439C252.087 234.845 252.624 236.215 253.264 237.538C253.888 238.874 254.621 240.156 255.454 241.373C257.045 243.841 259.238 245.863 261.827 247.248C267.648 250.515 273.775 253.204 280.12 255.276C283.278 256.31 286.512 257.096 289.792 257.626C293.06 258.182 296.392 258.254 299.681 257.842L300.903 257.644L302.106 257.362C302.886 257.158 303.619 256.807 304.268 256.328C305.612 255.356 306.87 254.271 308.028 253.085C310.356 250.699 312.552 248.189 314.608 245.565C318.738 240.325 322.594 234.875 326.161 229.238C322.678 234.932 318.897 240.439 314.834 245.735C312.814 248.4 310.652 250.954 308.357 253.386C307.214 254.617 305.955 255.734 304.597 256.723C303.903 257.235 303.119 257.612 302.285 257.832L301.053 258.133L299.813 258.349C296.472 258.779 293.087 258.719 289.764 258.171C286.452 257.658 283.186 256.881 279.997 255.849C273.622 253.787 267.461 251.111 261.602 247.859C260.224 247.178 258.956 246.294 257.842 245.236C256.741 244.188 255.752 243.029 254.89 241.777C254.04 240.528 253.282 239.218 252.625 237.857C251.962 236.494 251.403 235.083 250.951 233.637L251.346 233.919C249.291 233.993 247.234 233.92 245.189 233.703C243.125 233.507 241.089 233.084 239.117 232.443C238.105 232.12 237.152 231.635 236.297 231.005C235.805 230.653 235.439 230.152 235.254 229.576C235.171 229.256 235.175 228.919 235.264 228.601C235.353 228.282 235.524 227.993 235.761 227.762C236.6 227.036 237.614 226.543 238.703 226.333C239.769 226.194 240.844 226.141 241.918 226.173L241.815 226.474C240.303 226.577 238.786 226.577 237.274 226.474C236.508 226.387 235.748 226.249 235 226.06C234.21 225.881 233.459 225.563 232.781 225.12C232.389 224.871 232.078 224.511 231.888 224.086C231.786 223.856 231.737 223.605 231.747 223.353C231.754 223.124 231.789 222.897 231.851 222.676C232.15 221.855 232.757 221.181 233.543 220.796C234.973 220.157 236.516 219.805 238.083 219.762V220.129C236.369 220.308 234.639 220.279 232.932 220.044C232.047 219.875 231.203 219.533 230.45 219.039C230.041 218.762 229.716 218.378 229.51 217.929C229.299 217.461 229.243 216.937 229.35 216.435C229.478 215.969 229.706 215.537 230.02 215.17C230.334 214.803 230.724 214.509 231.164 214.31C231.941 213.885 232.773 213.569 233.637 213.37C235.321 213.102 237.029 213.017 238.732 213.117V213.54C237.439 213.394 236.156 213.178 234.887 212.891C233.585 212.632 232.331 212.169 231.174 211.519C230.863 211.328 230.587 211.087 230.356 210.804C230.094 210.481 229.96 210.073 229.98 209.657C230.038 209.281 230.185 208.925 230.409 208.617C230.633 208.31 230.928 208.06 231.268 207.89C232.464 207.29 233.768 206.932 235.103 206.837C237.683 206.602 240.278 206.602 242.858 206.837C245.43 207.041 247.991 207.376 250.528 207.843C251.158 207.965 251.797 208.088 252.408 208.238C253.049 208.368 253.678 208.55 254.288 208.783C255.487 209.298 256.633 209.927 257.71 210.663C259.833 212.123 261.878 213.692 263.839 215.363C267.768 218.691 271.519 222.206 275.119 225.835H275.034C280.514 227.931 286.014 230.008 291.616 231.747C293.017 232.17 294.436 232.584 295.865 232.885C296.569 233.058 297.292 233.15 298.017 233.157C298.359 233.074 298.679 232.92 298.957 232.706C299.268 232.509 299.568 232.293 299.897 232.076C302.219 230.413 304.447 228.486 306.656 226.54Z" fill="#263238"/>
<path d="M308.574 221.755L322.674 237.209C322.674 237.209 332.074 223.109 334.02 213.934C335.966 204.76 331.454 205.155 325.635 208.811C319.817 212.468 308.574 221.755 308.574 221.755Z" fill="#455A64"/>
<path d="M312.231 220.571C312.146 220.468 312.043 220.505 312.127 220.571C315.822 225.122 319.797 229.438 324.028 233.496C324.028 233.496 324.103 233.496 324.075 233.44C322.42 231.118 313.227 221.708 312.231 220.571Z" fill="#263238"/>
<path d="M321.179 211.754C316.855 214.979 312.409 218.494 308.292 221.775C308.847 222.403 309.444 222.993 310.078 223.542C310.181 223.636 310.247 223.542 310.153 223.401C309.928 223.147 309.016 222.16 308.818 221.869C312.983 218.56 317.147 215.242 321.217 211.811C321.245 211.783 321.208 211.736 321.179 211.754Z" fill="#263238"/>
<path d="M332.253 221.116C331.886 221.586 331.548 222.056 331.228 222.573L330.993 222.949C331.642 221.36 332.234 219.744 332.741 218.089C332.737 218.077 332.728 218.067 332.717 218.059C332.706 218.052 332.693 218.048 332.68 218.048C332.667 218.048 332.654 218.052 332.643 218.059C332.633 218.067 332.624 218.077 332.619 218.089C331.255 221.469 329.685 224.762 327.919 227.95C327.073 229.51 326.18 231.052 325.306 232.593C324.874 233.355 324.441 234.116 323.999 234.868C323.558 235.62 323.125 236.325 322.777 237.087C322.42 236.729 322.054 236.382 321.706 236.006C321.649 235.94 321.546 236.006 321.593 236.1C321.969 236.579 322.317 237.04 322.665 237.575C322.685 237.601 322.711 237.621 322.74 237.636C322.769 237.65 322.801 237.657 322.834 237.657C322.866 237.657 322.898 237.65 322.928 237.636C322.957 237.621 322.983 237.601 323.003 237.575C324.089 236.138 325.054 234.613 325.889 233.016C326.829 231.428 327.769 229.802 328.587 228.166C329.32 226.765 329.987 225.346 330.617 223.889C331.228 223.005 331.839 222.131 332.375 221.201C332.384 221.125 332.3 221.06 332.253 221.116Z" fill="#263238"/>
<path d="M348.044 207.589C348.763 208.365 349.214 209.351 349.329 210.402C349.444 211.454 349.217 212.514 348.683 213.427C348.683 213.427 353.383 212.806 355.451 216.172C356.504 217.911 354.671 221.116 354.671 221.116C354.671 221.116 358.431 220.787 360.114 223.936C361.43 226.408 359.39 229.256 359.39 229.256C359.39 229.256 363.15 230.638 363.704 233.59C364.776 239.568 344.839 253.01 336.811 247.69C333.051 245.236 338.118 242.219 338.118 242.219C338.118 242.219 329.808 244.804 326.932 240.762C324.055 236.72 330.851 233.242 330.851 233.242C330.851 233.242 322.786 235.686 320.22 231.193C317.56 226.493 324.92 224.162 324.92 224.162C324.92 224.162 318.462 224.162 317.297 220.261C315.36 213.84 328.248 214.856 331.932 210.861L329.479 202.006C329.479 202.006 345.243 204.346 348.044 207.589Z" fill="#C47B54"/>
<path d="M359.136 229.718C359.149 229.711 359.164 229.709 359.178 229.712C359.192 229.715 359.204 229.722 359.214 229.733C359.224 229.743 359.229 229.757 359.231 229.771C359.232 229.785 359.228 229.799 359.221 229.812C353.741 235.828 345.873 240.753 337.864 242.426C337.601 242.483 337.394 242.079 337.676 241.956C345.388 238.944 352.618 234.821 359.136 229.718Z" fill="#263238"/>
<path d="M354.794 221.097C354.869 221.041 354.972 221.163 354.897 221.229C349.257 227.405 340.205 232.716 330.739 233.552C330.419 233.552 330.1 233.28 330.466 233.214C336.717 232.18 348.74 225.976 354.794 221.097Z" fill="#263238"/>
<path d="M324.479 223.72C333.522 222.573 341.286 218.634 348.684 213.446C348.778 213.38 348.862 213.521 348.797 213.605C345.873 217.13 340.816 219.941 336.689 221.802C332.897 223.599 328.7 224.37 324.516 224.039C324.347 224.011 324.3 223.72 324.479 223.72Z" fill="#263238"/>
<path d="M316.281 292.773C331.011 288.937 346.296 282.752 356.401 270.495C357.545 269.155 358.207 267.47 358.281 265.71C362.915 260.296 361.749 256.479 361.749 256.479C364.513 250.116 362.783 246.384 362.783 246.384C362.783 246.384 368.151 239.964 364.804 236.044C361.044 231.682 354.267 241.543 347.207 244.682C331.03 251.873 306.026 257.57 301.147 259.187L316.281 292.773Z" fill="#C47B54"/>
<path d="M335.58 264.14C340.28 261.921 344.98 259.872 349.388 257.033C354.21 253.922 358.328 250.115 362.614 246.346C362.641 246.325 362.675 246.315 362.709 246.318C362.742 246.32 362.774 246.335 362.798 246.359C362.822 246.383 362.837 246.415 362.839 246.448C362.842 246.482 362.832 246.516 362.811 246.543C356.128 254.589 345.647 261.245 335.674 264.347C335.448 264.459 335.354 264.271 335.58 264.14Z" fill="#263238"/>
<path d="M338.513 274.555C342.978 272.149 350.818 267.872 361.665 256.366C361.665 256.366 361.769 256.366 361.74 256.423C355.885 264.563 347.883 270.916 338.626 274.771C338.334 274.903 338.212 274.715 338.513 274.555Z" fill="#263238"/>
<path d="M340.186 280.12C347.631 275.74 351.776 272.027 358.272 265.71C358.272 265.71 358.384 265.71 358.347 265.766C351.71 273.728 348.411 275.862 340.299 280.393C340.017 280.553 339.895 280.289 340.186 280.12Z" fill="#263238"/>
<path d="M327.205 252.146C324.723 252.25 324.657 250.943 328.004 248.085C331.35 245.228 347.048 236.721 343.627 231.494C340.205 226.268 318.247 238.582 313.02 243.78C307.794 248.978 301.186 259.215 301.186 259.215C305.942 257.673 317.833 255.041 327.205 252.146Z" fill="#C47B54"/>
<path d="M328.539 233.938C330.748 232.635 333.082 231.555 335.504 230.714C336.722 230.272 337.982 229.957 339.264 229.774C339.924 229.673 340.594 229.658 341.257 229.727C341.975 229.78 342.666 230.024 343.259 230.432C343.845 230.897 344.229 231.571 344.331 232.312C344.415 233.016 344.321 233.73 344.058 234.389C343.552 235.613 342.822 236.732 341.906 237.689C339.045 240.553 335.807 243.014 332.28 245.002C333.22 244.175 337.92 240.913 338.813 240.02C339.74 239.161 340.603 238.238 341.398 237.256C342.195 236.321 342.83 235.26 343.278 234.117C343.479 233.583 343.55 233.01 343.485 232.444C343.416 231.913 343.143 231.431 342.724 231.099C341.696 230.523 340.495 230.333 339.34 230.564C338.099 230.71 336.873 230.959 335.674 231.306C334.452 231.645 333.258 232.058 332.064 232.5C330.87 232.942 329.714 233.449 328.539 233.938Z" fill="#263238"/>
<path d="M337.206 248.648C338.278 248.066 346.785 244.672 347.828 244.052C349.98 242.944 351.944 241.504 353.647 239.784C354.587 238.976 355.527 238.177 356.467 237.425C357.45 236.66 358.501 235.987 359.606 235.413C360.178 235.134 360.776 234.914 361.392 234.755C361.715 234.672 362.046 234.631 362.379 234.633C362.545 234.614 362.712 234.614 362.877 234.633L363.376 234.746C364.021 234.931 364.597 235.304 365.03 235.818C365.439 236.324 365.722 236.92 365.857 237.557C366.065 238.784 365.981 240.043 365.613 241.232C365.812 240.043 365.754 238.825 365.444 237.66C365.29 237.108 365.01 236.6 364.626 236.175C364.24 235.778 363.747 235.503 363.206 235.385C362.076 235.265 360.938 235.526 359.973 236.128C358.922 236.696 357.922 237.354 356.984 238.092C356.044 238.816 355.104 239.596 354.164 240.386C353.249 241.213 352.278 241.976 351.259 242.67C347.151 245.49 339.5 247.793 337.206 248.648Z" fill="#263238"/>
<path d="M300.8 259.064C305.679 258.857 331.905 284.839 325.597 288.279C295.931 304.447 266.669 303.319 260.22 301.589C251.76 299.296 248.94 288.74 251.159 283.476C254.402 275.843 295.931 259.271 300.8 259.064Z" fill="#C47B54"/>
<path d="M264.995 273.145C279.809 263.341 301.035 258.942 301.072 258.923C301.382 258.791 302.012 258.989 301.796 259.064C298.628 260.502 276.773 267.449 265.296 273.502C265.192 273.54 264.892 273.211 264.995 273.145Z" fill="#263238"/>
<path d="M301.186 259.214C303.496 255.373 306.006 251.655 308.706 248.075C310.037 246.243 311.535 244.538 313.18 242.98C314.975 241.533 316.837 240.339 318.726 239.098C322.523 236.688 326.491 234.557 330.598 232.725C332.663 231.825 334.794 231.084 336.971 230.507C338.074 230.229 339.21 230.108 340.346 230.149C340.911 230.17 341.472 230.252 342.019 230.394C342.585 230.533 343.083 230.865 343.429 231.334C343.053 230.921 342.544 230.652 341.991 230.572C341.45 230.46 340.898 230.413 340.346 230.431C339.238 230.457 338.14 230.64 337.084 230.977C334.963 231.641 332.893 232.458 330.89 233.421C326.87 235.339 322.977 237.511 319.234 239.925C317.354 241.119 315.474 242.332 313.744 243.685C312.133 245.201 310.637 246.835 309.27 248.573C307.86 250.303 306.497 252.07 305.162 253.866C303.827 255.661 302.511 257.4 301.186 259.214Z" fill="#263238"/>
<path opacity="0.5" d="M220.985 139.618C219.359 148.764 211.322 156.256 211.322 156.256C211.322 156.256 200.512 154.273 194.223 147.439C188.978 141.743 188.959 133.922 193.706 130.829C200.512 126.392 206.227 138.829 206.227 138.829C206.227 138.829 204.347 125.274 212.478 125.349C218.146 125.396 222.339 131.995 220.985 139.618Z" fill="#A6CE39"/>
<path opacity="0.5" d="M265.844 131.887C260.204 135.731 252.11 135.346 252.11 135.346C252.11 135.346 247.608 128.634 247.974 121.81C248.285 116.113 252.392 112.09 256.434 113.002C262.272 114.309 258.653 123.709 258.653 123.709C258.653 123.709 264.829 115.756 268.993 120.071C271.879 123.116 270.544 128.681 265.844 131.887Z" fill="#0DBAAD"/>
<path d="M215.617 91.4804C213.333 95.3814 208.408 97.4588 208.408 97.4588C208.408 97.4588 203.802 94.7328 202.072 90.5498C200.634 87.0624 201.95 83.4904 204.638 82.87C208.492 81.9864 209.009 88.6322 209.009 88.6322C209.009 88.6322 210.429 82.1274 214.132 83.528C216.717 84.5056 217.526 88.2186 215.617 91.4804Z" fill="#04695E"/>
<ellipse cx="281.537" cy="153.744" rx="7.40157" ry="7.10069" fill="#263238"/>
<ellipse cx="275.987" cy="157.295" rx="7.40157" ry="7.10069" fill="#263238"/>
<ellipse cx="268.586" cy="160.845" rx="7.40157" ry="7.10069" fill="#263238"/>
<ellipse cx="261.186" cy="162.62" rx="7.40157" ry="7.10069" fill="#263238"/>
<ellipse cx="255.633" cy="166.17" rx="7.40157" ry="7.10069" fill="#263238"/>
<ellipse cx="246.381" cy="167.945" rx="7.40157" ry="7.10069" fill="#263238"/>
<ellipse cx="7.39735" cy="2.66441" rx="7.39735" ry="2.66441" transform="matrix(0.993379 0.114882 -0.124676 0.992198 233.812 167.115)" fill="#263238"/>
<ellipse cx="4.49422" cy="2.73218" rx="4.49422" ry="2.73218" transform="matrix(0.639943 0.768423 -0.793682 0.608332 271.073 157.295)" fill="#263238"/>
<ellipse cx="4.4317" cy="4.67593" rx="4.4317" ry="4.67593" transform="matrix(0.253789 0.96726 -0.97206 0.234734 292.48 143.094)" fill="#263238"/>
<ellipse cx="4.42045" cy="2.10743" rx="4.42045" ry="2.10743" transform="matrix(-0.0275471 0.99962 -0.999679 -0.0253545 295.248 150.301)" fill="#263238"/>
<ellipse cx="4.42045" cy="2.10743" rx="4.42045" ry="2.10743" transform="matrix(-0.0275471 0.99962 -0.999679 -0.0253545 295.248 155.626)" fill="#263238"/>
<ellipse cx="4.55551" cy="2.25277" rx="4.55551" ry="2.25277" transform="matrix(0.992364 0.123346 -0.160323 0.987065 272.729 136.929)" fill="#263238"/>
<ellipse cx="5.64739" cy="2.67754" rx="5.64739" ry="2.67754" transform="matrix(0.970199 -0.24231 0.215259 0.976557 262.755 139.665)" fill="#263238"/>
<ellipse cx="5.64739" cy="2.67754" rx="5.64739" ry="2.67754" transform="matrix(0.970199 -0.24231 0.215259 0.976557 257.204 141.516)" fill="#263238"/>
<ellipse cx="5.64739" cy="2.67754" rx="5.64739" ry="2.67754" transform="matrix(0.970199 -0.24231 0.215259 0.976557 253.503 143.366)" fill="#263238"/>
</svg>
