<svg xmlns="http://www.w3.org/2000/svg" viewBox="0 0 466.02 208.26"><defs><style>.cls-1{fill:#fff;}</style></defs><g id="Camada_2" data-name="Camada 2"><g id="Camada_1-2" data-name="Camada 1"><g id="Logo-c_NCPI" data-name="Logo-c NCPI"><path class="cls-1" d="M262.69,165.48A1.58,1.58,0,0,1,263,165,1.37,1.37,0,0,0,262.69,165.48Zm81.47-26.27a13.4,13.4,0,0,1-2.23-.15,12.35,12.35,0,0,0,2.22.16c.56,0,1.12,0,1.67-.1C345.27,139.17,344.72,139.18,344.16,139.21Zm-2.23-.15a11.91,11.91,0,0,1-1.85-.46A11.12,11.12,0,0,0,341.93,139.06Zm77.48-2.3a9.72,9.72,0,0,0,2.29,1.44A10.41,10.41,0,0,1,419.41,136.76Zm6.93,2.43-.75,0q.38,0,.75,0h0Z"/><path class="cls-1" d="M217.64,174.53c-2.87.29-3.68-1.39-3.64-4,.1-6.49.12-13,0-19.48-.1-5.39-2.21-7.53-7.61-7.74-4.15-.17-8.33-.22-12.48,0-2.94.17-4.29-.88-5.51-3.6-4.56-10.13-12.53-15.07-23.76-14.81-7,.16-12.64,3.17-17.5,8.77-.06-5.75-3.1-7.57-7.78-7.51-1.67,0-3.33,0-5,0-8.56,0-8.5,0-7.7,8.57.17,1.85.64,2.82,2.61,2.64,4.44-.42,4.62,2.36,4.61,5.73q-.12,30.21,0,60.42c0,1.42-.77,3.74.68,4.1a16.76,16.76,0,0,0,9.79-.16c2.56-.92,3.81-3.07,3.8-5.88,0-6.95,0-13.9,0-21.7,14.8,14,37.27,6,42-13.12.6-2.42,1.41-4.89,1.38-7.33,0-3.55,2-3.37,4.43-3.42,2.95-.05,3.76,1.44,3.72,4-.06,3.66,0,7.32,0,11,0,14.7,0,14.77,14.59,14.67,7.53-.05,6.7,1.72,6.9-7.36C221.23,175.65,220.66,174.22,217.64,174.53Zm-40.59-19.36c0,11.75-6,19.38-14.53,19.52s-14.58-7.62-14.6-18.49c0-5.09.86-9.93,4.26-13.95a13.55,13.55,0,0,1,22.71,3.17A21.34,21.34,0,0,1,177.05,155.17Z"/><path class="cls-1" d="M62.12,182.87c0,2.16-.78,2.75-2.9,2.9-9.34.64-11.62-1.36-11.65-10.79,0-8.15.08-16.31,0-24.46-.07-5,.34-10.36-5.78-12.5-5.42-1.89-12.5.84-16.28,6-3.45,4.7-3.86,10.16-3.92,15.68-.1,7.32-.19,14.64,0,22,.11,3.37-1.11,4.15-4.3,4.15-10.16,0-10.16.12-10.16-10.14,0-11.15-.09-22.3.06-33.45,0-3.31-.91-5.15-4.43-4.82-2.27.21-2.88-.84-2.73-2.9A38.69,38.69,0,0,0,0,129c-.15-2.14.63-3,2.83-2.87,2.66.15,5.33,0,8,0,8.44,0,9.65,1.06,10.7,9.75,5.12-7.41,11.83-11.18,20.71-11,11.72.22,19.06,6.36,19.58,18.06C62.42,156.23,62,169.56,62.12,182.87Z"/><path class="cls-1" d="M116.43,182.49c-14.32,8.34-33,5.08-42.29-7.39a32,32,0,0,1,3.51-42.23c6.14-5.78,13.61-8.06,22.55-8a29.64,29.64,0,0,1,12,2.29,15.17,15.17,0,0,1,6.41,4.61c2.6,3.23,2.8,7,2,10.82-.12.61-11.15,1.13-11.67.37-1.44-2.11-2.31-4.43-5.39-5.1A17.17,17.17,0,0,0,86,144.45c-4.79,6.72-4.6,17,.42,23.32,4.72,5.93,14.24,8.16,21.84,4.83a34.56,34.56,0,0,0,7.62-4.65c1.88-1.48,2.53-1,3.71.73C124.81,176.61,124.62,177.72,116.43,182.49Z"/><path class="cls-1" d="M278.74,65.35c-3.68,2-2.06,5.23-2.2,7.92-.23,4.65,0,9.32-.1,14,0,1.54.87,3.69-1.18,4.42-2.46.88-3.42-1.3-4.54-3-4-5.86-8-11.69-12.67-18.58,0,6.81-.14,12.39.05,18,.13,3.81-2.17,3.93-4.86,3.72-2-.14-2.36-2.26-1.5-2.76,3.7-2.16,2-5.5,2.18-8.31.24-5,0-10,.1-15,0-1.19-.65-2.84,1.29-3.28,1.67-.38,2.77.4,3.71,1.81,4.05,6.06,8.18,12.08,12.28,18.11l1.11-.11c0-5.42.07-10.84,0-16.27-.07-3.81,2.39-3.82,5-3.56C279.47,62.67,279.46,65,278.74,65.35Z"/><path class="cls-1" d="M406.14,109.38c-2.16-.12-4.33,0-6.49,0-5.37,0-5.32,0-3.27,4.73a8.11,8.11,0,0,1,.16,3c0,3,0,6,0,9,0,3.33,0,6.66,0,10,0,1.27-.28,2.8,1.79,2.86,2.26.08,2.26-1.44,2.26-3a15.91,15.91,0,0,0,0-2.49c-.74-4.31.8-5.71,5.32-5.52,5.85.26,9.29-3.7,9.26-9.37C415.16,113,411.93,109.7,406.14,109.38Zm-1.66,14.93c-5.29.37-3.53-3.27-3.89-5.68.34-2.54-1.35-5.95,3.65-5.68,4.07.23,6.78,1.27,6.73,5.83C410.93,123.08,408.34,124,404.48,124.31Z"/><path class="cls-1" d="M273.9,136.81a14.21,14.21,0,0,1-8.48,2.42c-6-.07-10.7-3.38-13-9.14-2.37-6-.87-13.56,3.48-17.53a15.39,15.39,0,0,1,16.33-2.21,6.25,6.25,0,0,1,3.27,2.94c.63,1.53,1.28,3.67-.15,4.61-1.76,1.15-2.5-.55-3.44-2.16-2.46-4.21-10.25-3.73-13.86.61-3.35,4-3.32,11.05.06,15.28s8.48,4.76,13.94,1.81c1.14-.61,2.27-2.59,3.68-.45S275.14,135.92,273.9,136.81Z"/><path class="cls-1" d="M465.74,136.4c-4.25-3.5-1.64-8.28-2.42-12.4-.53-2.79-1.4-5.08-4.3-6.12a10.64,10.64,0,0,0-9.56.8c-1.39.85-2.14,2.67-1.22,3.86s2.51,1.13,3.71-.53c1.51-2.1,3.63-1.9,5.71-.8a2.68,2.68,0,0,1,1.51,2.92c-.7,2.76-3.26,1.44-5,1.81-4,.86-7.4,2.11-7.7,6.24,0,5.26,4.83,8.62,9.17,6.6,2.36-1.09,4-2.21,6.31-.07.59.54,2.28.23,3.3-.13A1.54,1.54,0,0,0,465.74,136.4Zm-6.43-5.71c-.61,2.76-2,5-5.16,5.22-2,.14-3.73-.91-3.61-3.16.21-4.09,3.62-3.55,6.07-4C458.22,128.7,459.77,128.59,459.31,130.69Z"/><path class="cls-1" d="M382.88,136.54c-4-3.4-1.66-7.95-2.33-11.93-.85-5.12-3.17-7.39-8.59-7.48-2.21.34-5,.24-6.51,3-.35.67-.54,2-.18,2.34,2.79,2.39,3.64-1.59,5.67-1.87a8.26,8.26,0,0,1,1-.14c2.24,0,4.05.83,4.37,3.16.39,2.82-2.1,1.83-3.48,2.18s-2.65.3-3.9.7c-2.64.85-4.82,2.28-5.22,5.35-.33,2.49.29,4.67,2.48,6.08,2.57,1.67,5.37,1.93,7.93.14,1.55-1.09,2.45-2.15,3.95.16.81,1.24,2.81.88,4.21.43A1.56,1.56,0,0,0,382.88,136.54Zm-6.4-5.79c-.73,2.68-2,5-5.24,5.18-2.12.1-3.66-1-3.49-3.25.3-4.08,3.69-3.5,6.2-3.92C375.53,128.69,377.06,128.65,376.48,130.75Z"/><path class="cls-1" d="M284.56,185.75c-2.1.26-4.69.72-5-2.41-.3-3,0-6-.18-9-.16-2.66.6-6.19-3.67-6.31-4-.11-6.08,2.46-6.59,6.11-.37,2.6,0,5.3-.17,7.95-.09,1.4,1,3.6-1.83,3.72s-2.05-2-2.09-3.51c-.09-3.65,0-7.31-.06-10.95,0-1.19.63-2.79-1.3-3.27-1.32-.33-1.38-1.34-1.08-2.33,0-.12.08-.22.12-.32A1.37,1.37,0,0,1,263,165l.18-.12.16-.08.1,0a.35.35,0,0,1,.14,0,.84.84,0,0,1,.27,0H264c.2,0,.41,0,.62,0a5.3,5.3,0,0,0,.69,0h.19l.44,0,.88.08.42.08a2,2,0,0,1,.55.2.67.67,0,0,1,.14.09,1.38,1.38,0,0,1,.4.4,1.74,1.74,0,0,1,.11.18l.09.2c.63,1.69,1.12,1,2.24.35,7.68-4.67,12.23-2,12.57,7,.12,3.31-1.64,7.17,2.28,9.8A1.61,1.61,0,0,1,284.56,185.75Z"/><path class="cls-1" d="M392.37,183.17c-4.44-3-1.86-7.46-2.29-11.2-.6-5.15-2.65-7.53-8.27-7.84a8.24,8.24,0,0,0-2,.16c-2.05.53-4.39.77-5,3.42-.16.77-.38,1.77.5,2.24,2.34,1.26,3-1.32,4.4-2.08a2.59,2.59,0,0,1,.94-.3c2.34-.25,4.48.17,5,2.81.67,3.27-2.16,2-3.61,2.45-1.26.37-2.63.38-3.86.8-4.52,1.56-6.3,5-4.63,8.79a6.71,6.71,0,0,0,9.68,2.84c1.83-1.07,2.8-1.45,4.48.14a3.49,3.49,0,0,0,4.19,0C392.75,184.87,392.94,183.55,392.37,183.17ZM381,182.89c-2.06.26-3.76-.93-3.79-3,0-3.61,2.92-3.88,5.58-4,1.29-.09,3.17-.77,3.18,1.88C385.42,180.44,384,182.52,381,182.89Z"/><path class="cls-1" d="M317.55,183.24c-4.35-2.85-2.08-7.16-2.35-10.79-.52-7-7-10.71-13.15-7.25-1.84,1-3,2.71-1.76,4.43,1,1.35,2.51.67,3.62-.84,1.43-1.93,3.46-1.52,5.4-.72a2.66,2.66,0,0,1,1.65,3.28c-.74,2.39-3.11,1.21-4.73,1.55-4,.83-7.48,2-8,6.52a6.67,6.67,0,0,0,9.58,6.23c2.11-1,3.51-1.7,5.57-.06a3.47,3.47,0,0,0,3.79-.14C318,184.93,318.09,183.59,317.55,183.24ZM311,177.51c-.4,3-1.82,5.36-5.26,5.39-2.09,0-3.65-1.38-3.45-3.36.34-3.46,3.36-3.46,6-3.75C309.49,175.9,311.28,175.4,311,177.51Z"/><path class="cls-1" d="M341.73,183.69c0,2.13-1.23,2.16-2.44,2.2-2,.07-3.85-.3-4-2.68-.2-3.15,0-6.31-.14-9.46-.09-2.43.31-5.35-3.28-5.67a5.81,5.81,0,0,0-6.61,4.81c-.62,2.7-.22,5.61-.53,8.41-.18,1.67,1.31,4.56-2.11,4.48-3-.07-1.65-2.7-1.75-4.22-.2-3.3,0-6.63-.07-10,0-1,.19-2.42-.35-2.86-1.25-1-3.56-1.68-1.65-3.45a3.65,3.65,0,0,1,5.32.56c1.62,2.41,2.3.35,3.35-.26,5.93-3.47,11-.81,11.63,5.89C339.5,175.78,337.29,180.68,341.73,183.69Z"/><path class="cls-1" d="M366,70.18c-6.17.24-10.62,5.19-10.41,11.59a10.44,10.44,0,0,0,10.95,10.44c6.3,0,10.8-4.76,10.7-11.21A10.78,10.78,0,0,0,366,70.18Zm7.12,11.92c-.34,4.08-3.4,6.9-7.15,6.6-3.95-.32-6.62-3.68-6.36-8,.24-4.09,3.15-6.92,7-6.79C370.77,74.06,373.49,77.46,373.11,82.1Z"/><path class="cls-1" d="M342.84,81.9c1.64-.18,3.33.09,5-.08s4.1,1,5.08-.82c1.13-2.13.27-4.61-1-6.63-2.15-3.5-5.4-4.79-9.41-3.94C337,71.61,333.9,76.6,334.67,83c.67,5.57,4.82,9.18,10.75,9.17a7.74,7.74,0,0,0,4.59-1c1.15-.7,3.25-1,2.35-3.06-1-2.36-2.45-.57-3.65-.09-2.68,1.06-5.23,1-7.53-.83-1.32-1-2.61-2.47-2.17-4.21C339.52,81,341.51,82,342.84,81.9Zm1.38-8.32c2.35-.15,4.6,1,4.59,3.43,0,3.67-3.28,1-4.83,2.16-1.49-1.15-4.52,1.35-4.66-1.69C339.21,75,341.78,73.73,344.22,73.58Z"/><path class="cls-1" d="M330.41,138.88c-2,0-4.35.38-4.57-2.48-.24-3.14-.07-6.3-.13-9.46,0-2.49.18-5.33-3.23-5.8s-5.61,1.42-6.75,4.59-.32,6.59-.62,9.87c-.12,1.33.64,3.23-1.82,3.29s-2.08-1.66-2.09-3.12c0-3.65,0-7.31,0-11,0-1.23.55-2.83-1.08-3.49a1.83,1.83,0,0,1-1-2.81c.44-.91,1.28-.83,2.12-.76a4.36,4.36,0,0,0,1,0l.77.08a2.69,2.69,0,0,1,1.24.36l.14.11.12.12a1.76,1.76,0,0,1,.14.23l.06.14a.88.88,0,0,1,.05.15c.57,2.38,1.36,1.29,2.42.38a7.73,7.73,0,0,1,8.78-1.41c3.3,1.49,3.4,4.53,3.75,7.55.44,3.69-1.58,7.83,2.15,11C332.51,137.05,332.1,138.85,330.41,138.88Z"/><path class="cls-1" d="M305.33,120.63a8.35,8.35,0,0,0-9.3-3.14c-5.35,1.39-8.52,6.55-7.66,12.34.83,5.63,5,9.3,10.5,9.35a8.12,8.12,0,0,0,4.81-1c1.13-.73,3.28-.77,2.55-2.93-.84-2.46-2.35-.9-3.56-.32a7.13,7.13,0,0,1-7.13-.35c-1.65-1-3.06-2.57-2.73-4.44.41-2.36,2.7-1.11,4.17-1.29s3,.1,4.48-.08c1.84-.23,4.45,1.12,5.37-1.12S306.93,122.69,305.33,120.63Zm-7.54,5.46c-1.58-.88-4.4,1-4.56-1.49s2.36-3.87,4.84-4,4.68,1.18,4.62,3.53C302.6,127.82,299.26,124.86,297.79,126.09Z"/><path class="cls-1" d="M422.69,128.8c3,.1,6-.07,8.95,0,2.51.09,3.13-1.07,2.9-3.36-.62-6.31-6.28-9.85-12.25-7.58-4.86,1.85-7.35,6.74-6.41,12.59a9,9,0,0,0,.2.93.89.89,0,0,0,0,.14c.06.23.13.45.2.66s.06.18.1.27a.13.13,0,0,0,0,.08,3.88,3.88,0,0,0,.23.56,4.25,4.25,0,0,0,.32.64,3.72,3.72,0,0,0,.21.39l0,0a6.1,6.1,0,0,0,.34.54,2.43,2.43,0,0,0,.24.32,6.12,6.12,0,0,0,.39.5.13.13,0,0,0,.06.07,5.08,5.08,0,0,0,.5.54q.31.32.66.6a9.72,9.72,0,0,0,2.29,1.44c.28.13.56.24.85.35a11.17,11.17,0,0,0,1.43.4c.29.06.58.11.88.15l.73.07q.38,0,.75,0h.9l.72,0a1.63,1.63,0,0,0,.31,0l.31,0a7.51,7.51,0,0,0,1.47-.36,6.08,6.08,0,0,0,1.09-.53c1.15-.72,3.3-.89,2.49-3-.89-2.25-2.37-.73-3.67-.23-3.66,1.4-6.86.91-9.12-2.57C419.47,130.28,419.34,128.68,422.69,128.8Zm2.28-8.19a4.11,4.11,0,0,1,4.63,2.06c.86,1.61,1.29,3.26-1.58,3.21-2.56,0-5.14,0-8,0C420.63,122.62,422.31,121.07,425,120.61Z"/><path class="cls-1" d="M302.93,91.24c-1.48,1.12-3.75,1.13-4.55,0-1.7-2.52-2.74-1.18-4.41-.19-5.69,3.4-10.78.59-11.1-6-.12-2.49,0-5-.07-7.48,0-1,.61-2.55-.84-3-1.64-.57-2.25-1.55-1.41-2.94.67-1.13,2.1-.68,3.23-.67,1.7,0,3,.66,3,2.57.05,3.33,0,6.65.06,10,0,2-.07,4.23,2.51,4.81a5.52,5.52,0,0,0,6.37-2.76c2.15-3.55,1-7.46,1.26-11.22.12-1.58-.48-3.53,2.26-3.39,2.55.12,1.62,2,1.71,3.33.13,1.81,0,3.65,0,5.94,1,2.57-2,6.52,2.14,8.92C303.7,89.35,303.65,90.7,302.93,91.24Z"/><path class="cls-1" d="M348.47,138.31c-.17.1-.34.2-.51.28a4.28,4.28,0,0,1-.91.32l-.21.05a3.55,3.55,0,0,1-.47.09l-.55.07c-.55.06-1.11.07-1.67.1a11.79,11.79,0,0,1-4.07-.62,8.81,8.81,0,0,1-1.86-.88l-.33-.22s0,0,0,0l-.33-.23-.46-.37h0l-.21-.19c-.17-.15-.34-.32-.5-.49a5.17,5.17,0,0,1-.49-.56,4.46,4.46,0,0,1-.33-.43,11.49,11.49,0,0,1-1.25-2.18,10.94,10.94,0,0,1,1.94-12.5c3.05-3.28,7-4.15,11.4-2.7,1.84.61,3.34,1.52,3.68,3.6.15.94.49,2.1-.78,2.52-.89.3-2,.54-2.59-.63-1.92-3.77-4.87-2.88-7.47-1.27-3.26,2-3.74,5.31-2.67,8.76s3.71,4.91,7.23,4.81c.8,0,1.59-.52,2.4-.58,1.45-.1,3-3.49,4.25-.25C352.56,137.14,349.89,137.4,348.47,138.31Z"/><path class="cls-1" d="M260.8,184.81c-.93,2.15-3,.43-4.26,1.22-1.63-.64-3.69.93-4.6-1.19-.74-1.74.39-2.52,1.94-3.29.57-.29.49-2.12.51-3.26,0-4.82,0-9.64,0-14.47,0-1,.19-2.21-.29-2.91-.88-1.29-3.91-2.12-1.81-3.93s5.12-.78,7.68-.44c1.41.19,1.27,2.65.71,2.84-4.29,1.49-2.26,5-2.46,7.56-.3,3.8-.12,7.65-.05,11.47,0,1.1-.59,2.62.62,3.21C260.29,182.34,261.58,183,260.8,184.81Z"/><path class="cls-1" d="M322.45,89.89c-2.05,1.55-4.32,2.48-5.84,2.38-5.7-.11-9.19-2-10.94-6.35-1.81-4.5-1.45-9,2.06-12.51a10.36,10.36,0,0,1,11.5-2.51c1.66.59,3,1.48,3.52,3.22.25.93.44,2.16-.6,2.7a1.92,1.92,0,0,1-2.68-.47c-2.22-3.88-5.34-3-8-1.06-3.42,2.55-3.57,6.33-1.7,9.88s5,4.16,8.57,3A8.22,8.22,0,0,0,320.56,87c1-.72,1.74-.69,2.47.38S323.31,89.23,322.45,89.89Z"/><path class="cls-1" d="M360.53,183.86c-2,1.51-4.27,2.55-5.76,2.37-5.74-.1-9.14-2.11-10.95-6.34-1.92-4.52-1.36-8.87,2-12.45,3.12-3.29,7.07-4.07,11.42-2.65a4.83,4.83,0,0,1,3.53,3.18c.25.89.65,2.12-.31,2.75a1.93,1.93,0,0,1-3-.61c-2.11-3.51-5.09-2.75-7.68-1.08-3.43,2.21-3.7,5.81-2.36,9.29,1.28,3.29,4.06,4.74,7.6,4.09a12.34,12.34,0,0,0,3.63-1.5c1-.55,1.67-.83,2.37.44A1.7,1.7,0,0,1,360.53,183.86Z"/><path class="cls-1" d="M297.74,166.43c0,1.45-1,1.67-2,1.53-3.23-.46-2.89,1.7-2.88,3.7,0,3.81,0,7.63,0,11.44,0,1.34.05,2.77-2,2.75-2,.26-2-1.12-2-2.51,0-3.48.11-7,0-10.44-.08-1.9,1.16-4.42-1.9-5.33-.21-.07-.37-.53-.43-.83-.55-2.82,6-10.46,9.08-10.58,1,0,2.09-.26,2.33,1.14.22,1.25,0,2.3-1.55,2.53-1.84.25-3.16,1.27-3.3,3.16-.19,2.62,2,1.4,3.23,1.76C297.22,165,297.72,165.44,297.74,166.43Z"/><path class="cls-1" d="M206.92,137.56c-5.43.2-6.23-1.72-6.46-6.64-.28-5.86,2.26-6,6.87-6.2,5.63-.3,6.63,2,5.49,6.68C214.36,136.76,211.67,137.38,206.92,137.56Z"/><path class="cls-1" d="M332.78,91c-.84,1.41-2.38.81-3.63.73a2.35,2.35,0,0,1-2.39-2.61V78.64h0c0-3,0-6,0-9,0-1.1.54-2.58-.61-3.22-1.5-.83-2.74-1.74-1.63-3.38.8-1.17,2.48-.71,3.77-.55,1.82.22,2.42,1.52,2.42,3.21,0,5.66-.08,11.33.06,17,.06,2.11-1.13,4.76,1.94,6.07C333,88.91,333.11,90.45,332.78,91Z"/><path class="cls-1" d="M443.71,138.8c-2.07.24-4.71.63-4.93-2.5-.26-3.62-.06-7.27-.06-10.91h-.05c0-3,.06-6,0-8.93,0-1.08.57-2.49-.71-3.16s-2.42-1.36-1.69-3,2.3-.92,3.53-.92a2.62,2.62,0,0,1,2.75,2.88c.11,4.63-.18,9.28.17,13.88.26,3.33-1.78,7.19,2,10A1.6,1.6,0,0,1,443.71,138.8Z"/><path class="cls-1" d="M286.66,138.22c-.76,1.32-2.43.72-3.69.59-1.87-.19-2.38-1.54-2.37-3.21,0-3.5,0-7,0-10.49,0-1.4.55-3.17-1.38-3.86a1.7,1.7,0,0,1-1.09-2.37c.44-1.6,1.88-.93,2.4-1,2.87-.3,3.92.86,3.94,3.11,0,3.33,0,6.66.05,10,0,1.3-.55,3.07.61,3.77C286.66,135.65,287.54,136.7,286.66,138.22Z"/><path class="cls-1" d="M371.48,185.05c-.62,1.28-2,.83-3.15.79-1.67,0-3-.8-3.06-2.61-.13-3.16.05-6.33-.15-9.48-.13-2.11,1.17-4.76-1.91-6.06-.33-.14-.44-1.65-.12-2.24.67-1.27,2.07-.56,2.8-.68,2.54-.09,3.23,1.16,3.21,3.14,0,3.49-.06,7,0,10.48,0,1.23-.67,2.87.91,3.56S372.16,183.64,371.48,185.05Z"/><path class="cls-1" d="M361.71,138.17c-.62,1.26-2.08.79-3.17.69-1.64-.13-2.78-1-2.78-2.84,0-3.66,0-7.32-.08-11,0-1.4.61-3.17-1.37-3.84a1.69,1.69,0,0,1-1.15-2.34c.45-1.55,1.87-1,2.28-1,3.26-.31,4.25,1,4.21,3.49-.06,3.32-.06,6.65,0,10,0,1.25-.62,2.91.81,3.64S362.35,136.89,361.71,138.17Z"/><path class="cls-1" d="M311.84,161.44c-2.77-.72-5-3.37-7.74.15-.56.74-1.47-.81-.75-1.8,1-1.41,1.49-3.43,3.81-3.46C310.51,156.28,310.59,159.29,311.84,161.44Z"/><path class="cls-1" d="M303.25,114.11c-1.54.91-2.44.73-2.93.07-1.21-1.64-2.22-3-3.69-.2a1.63,1.63,0,0,1-2.19.66c-1.14-.81-.21-1.75.29-2.54.88-1.37,1.6-2.92,3.7-2.74C301.38,109.62,301.6,112.28,303.25,114.11Z"/><path class="cls-1" d="M296.21,62.94a7.36,7.36,0,0,1-.88,1.8c-1.18,1.22-1.62,3.62-4.06,2.93-.78-.22-.49-1.16-.17-1.73C292.14,64.05,292.75,61.35,296.21,62.94Z"/><path class="cls-1" d="M367.19,160.52c-1.14,0-1.93-.42-2-1.69s.16-2.36,1.75-2.46a1.54,1.54,0,0,1,1.89,1.71C368.87,159.29,368.9,160.51,367.19,160.52Z"/><path class="cls-1" d="M359.23,111.45c.07,1.37-.42,2.21-2,2.13s-1.48-1-1.46-2,0-2,1.38-2.14S359.22,110.11,359.23,111.45Z"/><path class="cls-1" d="M282.51,113.58c-1.24,0-1.77-.57-1.74-1.74,0-.26,0-.53,0-.79a2.42,2.42,0,0,1,0-.39.78.78,0,0,1,0-.16c0-.08,0-.15.05-.22a.14.14,0,0,1,0-.06A.75.75,0,0,1,281,110a.57.57,0,0,1,.08-.13.39.39,0,0,1,.08-.1,1.11,1.11,0,0,1,.36-.26,1.35,1.35,0,0,1,.24-.08l.3,0,.26,0,.3,0h0a1.72,1.72,0,0,1,.34,0,1.25,1.25,0,0,1,.31.1,1,1,0,0,1,.24.15,1,1,0,0,1,.19.21,1,1,0,0,1,.14.25,2,2,0,0,1,.15.63c0,.1,0,.2,0,.3v.09C284,112.23,284.28,113.53,282.51,113.58Z"/><path class="cls-1" d="M202.2,82.73s-28.66,28.66-54.16,35c19.27-15.19,39.36-29.31,35.89-58.9s-34.65-30.9-34.65-30.9a4.51,4.51,0,0,0-.69-.12,39.89,39.89,0,0,1,3.84-9.91c5-9.09,12.36-16.38,23-17.6,20.18-2.33,40.23,10.83,42.66,31.6C221.57,61.48,202.2,82.73,202.2,82.73Z"/><path class="cls-1" d="M148,117.7c2.31-7.6-1.58-19.54-7.26-26.15-3.51-4.09-11.94-10-17.67-20.3C114.68,56,120.5,36.38,136.62,29.67a23.39,23.39,0,0,1,12-1.89c-4.49,18.8,6,36.35,9.19,40.15C164.87,76.45,164.09,104.44,148,117.7Z"/></g></g></g></svg>